<svg width="24" height="24" viewBox="0 0 24 24" fill="none" xmlns="http://www.w3.org/2000/svg">
<g id="vuesax/outline/mobile">
<g id="mobile">
<path id="Vector" d="M15 22.75H9C4.59 22.75 3.25 21.41 3.25 17V7C3.25 2.59 4.59 1.25 9 1.25H15C19.41 1.25 20.75 2.59 20.75 7V17C20.75 21.41 19.41 22.75 15 22.75ZM9 2.75C5.42 2.75 4.75 3.43 4.75 7V17C4.75 20.57 5.42 21.25 9 21.25H15C18.58 21.25 19.25 20.57 19.25 17V7C19.25 3.43 18.58 2.75 15 2.75H9Z" fill="#0C0C0C"/>
<path id="Vector_2" d="M14 6.25H10C9.59 6.25 9.25 5.91 9.25 5.5C9.25 5.09 9.59 4.75 10 4.75H14C14.41 4.75 14.75 5.09 14.75 5.5C14.75 5.91 14.41 6.25 14 6.25Z" fill="#0C0C0C"/>
<path id="Vector_3" d="M11.9992 19.86C10.7292 19.86 9.69922 18.83 9.69922 17.56C9.69922 16.29 10.7292 15.26 11.9992 15.26C13.2692 15.26 14.2992 16.29 14.2992 17.56C14.2992 18.83 13.2692 19.86 11.9992 19.86ZM11.9992 16.75C11.5592 16.75 11.1992 17.11 11.1992 17.55C11.1992 17.99 11.5592 18.35 11.9992 18.35C12.4392 18.35 12.7992 17.99 12.7992 17.55C12.7992 17.11 12.4392 16.75 11.9992 16.75Z" fill="#0C0C0C"/>
</g>
</g>
</svg>
