<svg width="0" height="0" class="hidden">
  <symbol fill="none" xmlns="http://www.w3.org/2000/svg" viewBox="0 0 32 32" id="twitter">
    <path fill-rule="evenodd" clip-rule="evenodd" d="M7.07276 5.16406L7.9372 6.77768C9.9804 10.5916 12.8974 11.7617 14.7143 11.9922V11.3094C14.7143 8.00885 17.3899 5.33322 20.6904 5.33322C23.991 5.33322 26.6667 8.00885 26.6667 11.3094V13.3332C26.6667 22.1716 20.4007 27.9999 13.1905 27.9999C10.0218 27.9999 7.78346 26.9661 6.3254 25.8861C5.60315 25.3511 5.08144 24.8119 4.73434 24.3965C4.56058 24.1887 4.4297 24.0108 4.3385 23.8783C4.29286 23.8121 4.25704 23.7571 4.23066 23.7152C4.21747 23.6943 4.20662 23.6765 4.19807 23.6624L4.18695 23.6437L4.18267 23.6365L4.18084 23.6333L4.18002 23.6319C4.18002 23.6319 4.17923 23.6305 5.33332 22.9628L4.17923 23.6305L3.02148 21.6295H5.33332C6.80528 21.6295 7.67179 21.6239 8.52351 21.4007C9.33562 21.1877 10.2225 20.7477 11.5711 19.6988L13.2083 21.8037C11.6998 22.9769 10.4871 23.6427 9.19954 23.9801C8.96384 24.0419 8.72867 24.0916 8.4929 24.1316C9.54591 24.7667 11.072 25.3332 13.1905 25.3332C18.8374 25.3332 24 20.7911 24 13.3332V11.3094C24 9.48161 22.5183 7.99989 20.6904 7.99989C18.8627 7.99989 17.381 9.48161 17.381 11.3094V14.5049L16.219 14.6555C14.0966 14.9307 9.90519 14.1324 6.79126 9.94349C6.67762 10.3694 6.64951 10.81 6.70836 11.2484C6.84667 12.2784 7.48878 13.4493 8.94871 14.4587L7.43223 16.6521C5.46359 15.2912 4.31998 13.4992 4.06542 11.6033C3.81124 9.71017 4.46712 7.86621 5.8021 6.48178L7.07276 5.16406Z" fill="currentColor"></path>
    <path fill-rule="evenodd" clip-rule="evenodd" d="M7.28073 17.1733C8.05153 17.0627 8.74237 16.648 9.06611 16.4128L10.6335 18.5701C10.149 18.9221 9.0443 19.6141 7.65965 19.8129C6.18214 20.0251 4.45441 19.6559 3.00195 17.9747L5.01989 16.2313C5.81518 17.1519 6.60278 17.2707 7.28073 17.1733Z" fill="currentColor"></path>
    <path fill-rule="evenodd" clip-rule="evenodd" d="M26.381 7.31089C26.5369 7.12165 26.6498 6.82651 26.648 6.32279L29.3146 6.31293C29.318 7.20825 29.1158 8.18482 28.4396 9.00603C27.7612 9.83002 26.7546 10.3165 25.5136 10.5295L25.0625 7.90127C25.8848 7.76014 26.2276 7.49738 26.381 7.31089Z" fill="currentColor"></path>
  </symbol>
  <symbol fill="none" xmlns="http://www.w3.org/2000/svg" viewBox="0 0 18 18" id="star">
    <path d="M7.85873 1.51246C8.21795 0.406889 9.78205 0.406888 10.1413 1.51246L11.4248 5.46262C11.5854 5.95704 12.0461 6.2918 12.566 6.2918H16.7195C17.8819 6.2918 18.3653 7.77933 17.4248 8.46262L14.0646 10.9039C13.644 11.2095 13.468 11.7512 13.6287 12.2456L14.9122 16.1957C15.2714 17.3013 14.006 18.2207 13.0655 17.5374L9.70534 15.0961C9.28476 14.7905 8.71524 14.7905 8.29466 15.0961L4.93446 17.5374C3.994 18.2207 2.72862 17.3013 3.08784 16.1957L4.37133 12.2456C4.53198 11.7512 4.35599 11.2095 3.9354 10.9039L0.575201 8.46262C-0.365256 7.77934 0.118075 6.2918 1.28054 6.2918H5.43398C5.95385 6.2918 6.4146 5.95704 6.57525 5.46262L7.85873 1.51246Z" fill="#063A88"></path>
  </symbol>
  <symbol fill="none" xmlns="http://www.w3.org/2000/svg" viewBox="0 0 32 32" id="youtube">
    <path fill-rule="evenodd" clip-rule="evenodd" d="M13.3327 12.7098V19.2901L18.8163 16L13.3327 12.7098ZM10.666 21.6451C10.666 22.6815 11.7966 23.3216 12.6853 22.7884L22.0938 17.1433C22.957 16.6255 22.957 15.3745 22.0938 14.8567L12.6853 9.2116C11.7966 8.67838 10.666 9.31854 10.666 10.3549V21.6451Z" fill="currentColor"></path>
    <path fill-rule="evenodd" clip-rule="evenodd" d="M26.666 23.3705V8.62951C26.666 7.57406 26.0963 6.91511 25.4709 6.72324C23.3228 6.06419 20.0291 5.33332 15.9993 5.33332C11.9696 5.33332 8.67591 6.06419 6.52775 6.72324C5.90238 6.91511 5.33268 7.57406 5.33268 8.62951V23.3705C5.33268 24.4259 5.90238 25.0849 6.52775 25.2768C8.67591 25.9357 11.9696 26.6667 15.9993 26.6667C20.0291 26.6667 23.3228 25.9357 25.4709 25.2768C26.0963 25.0849 26.666 24.4259 26.666 23.3705ZM5.74562 4.17386C3.81434 4.76636 2.66602 6.60939 2.66602 8.62951V23.3705C2.66602 25.3907 3.81434 27.2336 5.74562 27.8261C8.09006 28.5453 11.6507 29.3333 15.9993 29.3333C20.348 29.3333 23.9087 28.5453 26.2531 27.8261C28.1844 27.2336 29.3327 25.3907 29.3327 23.3705V8.62951C29.3327 6.60939 28.1844 4.76636 26.2531 4.17386C23.9087 3.45459 20.348 2.66666 15.9993 2.66666C11.6507 2.66666 8.09006 3.45459 5.74562 4.17386Z" fill="currentColor"></path>
  </symbol>
  <symbol fill="none" xmlns="http://www.w3.org/2000/svg" viewBox="0 0 32 32" id="instagram">
    <path d="M28.9272 10.6397C28.8648 9.2554 28.6411 8.30825 28.3239 7.48078C27.991 6.6273 27.5489 5.89872 26.826 5.18054C26.103 4.46237 25.3801 4.00961 24.5271 3.68175C23.7002 3.35909 22.7536 3.14051 21.3701 3.07806C19.9814 3.01561 19.5393 3 16.013 3C12.4815 3 12.0394 3.01561 10.656 3.07806C9.27248 3.14051 8.32589 3.36429 7.49892 3.68175C6.64075 4.01481 5.9126 4.45717 5.19486 5.18054C4.47712 5.90392 4.02463 6.6273 3.69696 7.48078C3.3797 8.30825 3.15605 9.2554 3.09364 10.6397C3.03123 12.0292 3.01562 12.4716 3.01562 16C3.01562 19.5336 3.03123 19.976 3.09364 21.3603C3.15605 22.7446 3.3797 23.6918 3.69696 24.5192C4.02983 25.3727 4.47192 26.1013 5.19486 26.8195C5.9126 27.5428 6.64075 27.9904 7.49372 28.3183C8.32069 28.6409 9.26728 28.8595 10.6508 28.9219C12.0394 28.9844 12.4815 29 16.0078 29C19.5393 29 19.9814 28.9844 21.3649 28.9219C22.7484 28.8595 23.695 28.6357 24.5219 28.3183C25.3749 27.9852 26.103 27.5428 26.8208 26.8195C27.5385 26.0961 27.991 25.3727 28.3187 24.5192C28.6411 23.6918 28.8596 22.7446 28.922 21.3603C28.9844 19.9708 29 19.5284 29 16C29 12.4716 28.9896 12.024 28.9272 10.6397ZM26.5919 21.2562C26.5347 22.526 26.3215 23.2182 26.1447 23.6709C25.9106 24.2746 25.6245 24.7118 25.1669 25.1697C24.7092 25.6277 24.2775 25.9035 23.669 26.1481C23.2113 26.3251 22.5195 26.5384 21.2557 26.5957C19.8878 26.6581 19.4769 26.6737 16.0026 26.6737C12.5283 26.6737 12.1174 26.6581 10.7496 26.5957C9.48052 26.5384 8.78878 26.3251 8.33629 26.1481C7.73297 25.9139 7.29608 25.6277 6.83839 25.1697C6.3807 24.7118 6.10504 24.2798 5.86059 23.6709C5.68376 23.213 5.47052 22.5208 5.4133 21.2562C5.35089 19.8875 5.33529 19.4764 5.33529 16C5.33529 12.5236 5.35089 12.1125 5.4133 10.7438C5.47052 9.47398 5.68376 8.78183 5.86059 8.32906C6.09464 7.72538 6.3807 7.28823 6.83839 6.83026C7.29608 6.3723 7.72777 6.09648 8.33629 5.85188C8.79398 5.67494 9.48572 5.46157 10.7496 5.40432C12.1174 5.34187 12.5283 5.32626 16.0026 5.32626C19.4769 5.32626 19.8878 5.34187 21.2557 5.40432C22.5247 5.46157 23.2165 5.67494 23.669 5.85188C24.2723 6.08607 24.7092 6.3723 25.1669 6.83026C25.6245 7.28823 25.9002 7.72018 26.1447 8.32906C26.3215 8.78703 26.5347 9.47918 26.5919 10.7438C26.6544 12.1125 26.67 12.5236 26.67 16C26.67 19.4764 26.6492 19.8875 26.5919 21.2562Z" fill="currentColor"></path>
    <path d="M16.0024 9.31784C12.3096 9.31784 9.32422 12.3102 9.32422 16C9.32422 19.6949 12.3148 22.6821 16.0024 22.6821C19.6899 22.6821 22.6805 19.6845 22.6805 16C22.6805 12.305 19.6951 9.31784 16.0024 9.31784ZM16.0024 20.3351C13.6099 20.3351 11.6699 18.3939 11.6699 16C11.6699 13.6061 13.6099 11.6649 16.0024 11.6649C18.3948 11.6649 20.3348 13.6061 20.3348 16C20.3348 18.3939 18.3948 20.3351 16.0024 20.3351Z" fill="currentColor"></path>
    <path d="M22.9412 10.6189C23.8029 10.6189 24.5015 9.9199 24.5015 9.05765C24.5015 8.19539 23.8029 7.4964 22.9412 7.4964C22.0794 7.4964 21.3809 8.19539 21.3809 9.05765C21.3809 9.9199 22.0794 10.6189 22.9412 10.6189Z" fill="currentColor"></path>
    <path d="M3 16C3 19.5336 3.0156 19.976 3.07802 21.3603C3.14043 22.7446 3.36407 23.6918 3.68134 24.5192C4.0142 25.3727 4.45629 26.1013 5.17924 26.8195C5.89698 27.5376 6.62512 27.9904 7.4781 28.3183C8.30506 28.6409 9.25165 28.8595 10.6351 28.9219C12.0238 28.9844 12.4659 29 15.9922 29C19.5237 29 19.9658 28.9844 21.3493 28.9219C22.7327 28.8595 23.6793 28.6357 24.5063 28.3183C25.3593 27.9852 26.0874 27.5428 26.8052 26.8195C27.5229 26.1013 27.9754 25.3727 28.3031 24.5192C28.6255 23.6918 28.844 22.7446 28.9064 21.3603C28.9688 19.9708 28.9844 19.5284 28.9844 16C28.9844 12.4664 28.9688 12.024 28.9064 10.6397C28.844 9.2554 28.6203 8.30825 28.3031 7.48078C27.9702 6.6273 27.5281 5.89872 26.8052 5.18054C26.0926 4.45717 25.3645 4.00961 24.5115 3.68175C23.6845 3.35909 22.7379 3.14051 21.3545 3.07806C19.9658 3.01561 19.5237 3 15.9974 3C12.4659 3 12.0238 3.01561 10.6403 3.07806C9.25685 3.14051 8.31026 3.36429 7.4833 3.68175C6.63033 4.01481 5.90218 4.45717 5.18444 5.18054C4.46669 5.90392 4.0142 6.6273 3.68654 7.48078C3.36407 8.30825 3.14043 9.2554 3.07802 10.6397C3.0156 12.024 3 12.4664 3 16ZM5.34567 16C5.34567 12.5288 5.36127 12.1125 5.42368 10.7438C5.4809 9.47398 5.69414 8.78183 5.87097 8.32906C6.10502 7.72538 6.39108 7.28823 6.84877 6.83026C7.30646 6.3723 7.73815 6.09648 8.34667 5.85188C8.80436 5.67494 9.4961 5.46157 10.76 5.40432C12.1278 5.34187 12.5387 5.32626 16.013 5.32626C19.4873 5.32626 19.8982 5.34187 21.2661 5.40432C22.5351 5.46157 23.2268 5.67494 23.6793 5.85188C24.2827 6.08607 24.7195 6.3723 25.1772 6.83026C25.6349 7.28823 25.9106 7.72018 26.155 8.32906C26.3319 8.78703 26.5451 9.47918 26.6023 10.7438C26.6647 12.1125 26.6803 12.5236 26.6803 16C26.6803 19.4764 26.6647 19.8875 26.6023 21.2562C26.5451 22.526 26.3319 23.2182 26.155 23.6709C25.921 24.2746 25.6349 24.7118 25.1772 25.1697C24.7195 25.6277 24.2879 25.9035 23.6793 26.1481C23.2216 26.3251 22.5299 26.5384 21.2661 26.5957C19.8982 26.6581 19.4873 26.6737 16.013 26.6737C12.5387 26.6737 12.1278 26.6581 10.76 26.5957C9.4909 26.5384 8.79916 26.3251 8.34667 26.1481C7.74335 25.9139 7.30646 25.6277 6.84877 25.1697C6.39108 24.7118 6.11542 24.2798 5.87097 23.6709C5.69414 23.213 5.4809 22.5208 5.42368 21.2562C5.35607 19.8875 5.34567 19.4712 5.34567 16Z" fill="currentColor"></path>
  </symbol>
  <symbol fill="none" xmlns="http://www.w3.org/2000/svg" viewBox="0 0 40 46" id="benefits-4">
    <path d="M20.0005 35.7168C25.9119 35.7168 30.7041 30.9246 30.7041 25.0131C30.7041 19.1017 25.9119 14.3095 20.0005 14.3095C14.089 14.3095 9.29688 19.1017 9.29688 25.0131C9.29688 30.9246 14.089 35.7168 20.0005 35.7168Z" fill="#AECDFB"></path>
    <path d="M19.9997 39.2811C16.6584 39.2811 13.4097 38.102 10.8519 35.9599C10.6403 35.7828 10.6122 35.4671 10.7893 35.2555C10.9664 35.0429 11.2816 35.0149 11.4942 35.193C13.8725 37.1835 16.893 38.2806 19.9997 38.2806C27.3095 38.2806 33.2566 32.3335 33.2566 25.0236C33.2566 17.7138 27.3095 11.7667 19.9997 11.7667C12.8569 11.7667 7.01536 17.4442 6.75222 24.5234H8.92486C9.201 24.5234 9.42512 24.747 9.42512 25.0236C9.42512 25.3003 9.201 25.5239 8.92486 25.5239H6.24245C5.96631 25.5239 5.74219 25.3003 5.74219 25.0236C5.74219 17.162 12.138 10.7661 19.9997 10.7661C27.8613 10.7661 34.2572 17.162 34.2572 25.0236C34.2572 32.8853 27.8613 39.2811 19.9997 39.2811Z" fill="#0C0C0C"></path>
    <path d="M20 45.0236C8.97221 45.0236 0 36.0514 0 25.0236C0 15.3866 6.78656 7.19728 16.1985 5.38983V3.98009H14.0239C13.7477 3.98009 13.5236 3.75597 13.5236 3.47983C13.5236 1.56082 15.0844 0 17.0034 0H22.9966C24.9156 0 26.4764 1.56082 26.4764 3.47983C26.4764 3.75597 26.2528 3.98009 25.9761 3.98009H23.801V5.38983C33.2139 7.19678 40 15.3851 40 25.0236C40 36.0514 31.0283 45.0236 20 45.0236ZM17.199 5.74902C17.1995 5.75402 17.2 5.75952 17.2005 5.76403C17.2225 6.02316 17.0455 6.25578 16.7893 6.29931C7.64051 7.85712 1.00053 15.7318 1.00053 25.0236C1.00053 35.5001 9.5235 44.0231 20 44.0231C30.4765 44.0231 38.9995 35.5001 38.9995 25.0236C38.9995 15.7298 32.3575 7.85512 23.2057 6.29881C22.9496 6.25528 22.7695 6.02266 22.7915 5.76353C22.793 5.74201 22.7965 5.7205 22.801 5.69999V3.47983C22.801 3.20368 23.0246 2.97956 23.3012 2.97956H25.4254C25.1932 1.85147 24.1927 1.00053 22.9966 1.00053H17.0034C15.8078 1.00053 14.8068 1.85147 14.5752 2.97956H16.6993C16.9754 2.97956 17.1995 3.20368 17.1995 3.47983V5.74902H17.199Z" fill="#0C0C0C"></path>
    <path d="M18.8812 30.9897H12.2738C12.0767 30.9897 11.8981 30.8742 11.8175 30.6941C11.7365 30.5145 11.769 30.3044 11.9001 30.1573L17.7006 23.6344C18.6876 22.5248 18.5876 20.8194 17.478 19.8324C16.3679 18.8459 14.663 18.9454 13.6755 20.055C13.4924 20.2611 13.1757 20.2801 12.9691 20.0965C12.7625 19.9129 12.744 19.5968 12.9276 19.3902C14.2808 17.8684 16.62 17.7313 18.1423 19.085C19.6641 20.4387 19.8012 22.7779 18.4475 24.2997L13.3878 29.9892H18.8812C19.1574 29.9892 19.3815 30.2128 19.3815 30.4895C19.3815 30.7661 19.1574 30.9897 18.8812 30.9897Z" fill="#0C0C0C"></path>
    <path d="M25.9337 30.9898C25.6571 30.9898 25.4335 30.7661 25.4335 30.4895V28.5H20.1567C19.9751 28.5 19.808 28.4019 19.7195 28.2433C19.6314 28.0847 19.6354 27.8911 19.731 27.7366L25.508 18.3881C25.6251 18.198 25.8542 18.108 26.0703 18.17C26.2854 18.2311 26.434 18.4277 26.434 18.6513V27.4994H28.1689C28.4456 27.4994 28.6692 27.723 28.6692 27.9997C28.6692 28.2763 28.4456 28.5 28.1689 28.5H26.434V30.49C26.434 30.7661 26.2104 30.9898 25.9337 30.9898ZM21.0537 27.4994H25.4335V20.4127L21.0537 27.4994Z" fill="#0C0C0C"></path>
    <path d="M31.5382 25.5239H31.0745C30.7978 25.5239 30.5742 25.3003 30.5742 25.0236C30.5742 24.747 30.7978 24.5234 31.0745 24.5234H31.5382C31.8149 24.5234 32.0385 24.747 32.0385 25.0236C32.0385 25.3003 31.8149 25.5239 31.5382 25.5239Z" fill="#0C0C0C"></path>
    <path d="M20.0003 14.4486C19.7241 14.4486 19.5 14.2245 19.5 13.9483V13.4846C19.5 13.2084 19.7241 12.9843 20.0003 12.9843C20.2764 12.9843 20.5005 13.2084 20.5005 13.4846V13.9483C20.5005 14.225 20.2764 14.4486 20.0003 14.4486Z" fill="#0C0C0C"></path>
    <path d="M20.0003 37.0625C19.7241 37.0625 19.5 36.8388 19.5 36.5622V36.0985C19.5 35.8218 19.7241 35.5982 20.0003 35.5982C20.2764 35.5982 20.5005 35.8218 20.5005 36.0985V36.5622C20.5005 36.8388 20.2764 37.0625 20.0003 37.0625Z" fill="#0C0C0C"></path>
  </symbol>
  <symbol fill="none" xmlns="http://www.w3.org/2000/svg" viewBox="0 0 41 44" id="benefits-2">
    <path d="M20.4997 29.2147C24.6006 29.2147 27.9251 25.8902 27.9251 21.7892C27.9251 17.6882 24.6006 14.3638 20.4997 14.3638C16.3987 14.3638 13.0742 17.6882 13.0742 21.7892C13.0742 25.8902 16.3987 29.2147 20.4997 29.2147Z" fill="#AECDFB"></path>
    <path d="M20.4997 43.7704C20.4438 43.7704 20.3874 43.7606 20.332 43.7402C8.2712 39.3101 1.59957 28.0776 0.50093 10.3549C0.48634 10.118 0.644887 9.90499 0.875899 9.85101C6.38954 8.56902 11.2714 6.55751 15.3849 3.87194C15.6101 3.72506 15.9111 3.78829 16.058 4.01346C16.2049 4.23864 16.1416 4.54017 15.9165 4.68656C11.8079 7.36873 6.95856 9.39239 1.49793 10.7036C2.65736 28.0056 8.93019 38.5164 20.667 42.8278C20.9195 42.9202 21.0483 43.1999 20.9559 43.4518C20.884 43.6483 20.6977 43.7704 20.4997 43.7704Z" fill="#0C0C0C"></path>
    <path d="M20.5 43.7703C20.4018 43.7703 20.3045 43.7402 20.2218 43.6828C20.0915 43.5919 20.0137 43.443 20.0137 43.284V31.5272C20.0137 31.2583 20.2316 31.0409 20.5 31.0409C20.7685 31.0409 20.9864 31.2583 20.9864 31.5272V42.5788C32.302 38.12 38.3638 27.6807 39.5013 10.7036C32.0739 8.92063 25.8532 5.85571 20.9864 1.5832V8.24947C20.9864 8.51793 20.7685 8.73582 20.5 8.73582C20.2316 8.73582 20.0137 8.51793 20.0137 8.24947V0.486018C20.0137 0.292455 20.1284 0.116886 20.3064 0.0400437C20.4845 -0.0367982 20.6911 -0.00129529 20.8322 0.131476C25.771 4.75317 32.2612 8.02381 40.1239 9.85148C40.3554 9.90547 40.5139 10.1185 40.4988 10.3553C39.4002 28.0776 32.7286 39.3106 20.6678 43.7402C20.6133 43.7601 20.5564 43.7703 20.5 43.7703Z" fill="#0C0C0C"></path>
    <path d="M20.4996 32.0135C18.1223 32.0135 15.8112 31.1741 13.9909 29.6509C13.7851 29.4787 13.7579 29.1719 13.9301 28.9661C14.1022 28.7599 14.4086 28.7322 14.6153 28.9053C16.2606 30.2827 18.3504 31.0414 20.4996 31.0414C25.5565 31.0414 29.6705 26.9274 29.6705 21.8704C29.6705 16.8135 25.5565 12.6985 20.4996 12.6985C15.4426 12.6985 11.3282 16.8125 11.3282 21.8699C11.3282 22.1384 11.1103 22.3563 10.8418 22.3563C10.5733 22.3563 10.3555 22.1384 10.3555 21.8699C10.3555 16.2765 14.9062 11.7258 20.4996 11.7258C26.093 11.7258 30.6432 16.2765 30.6432 21.8699C30.6432 27.4633 26.093 32.0135 20.4996 32.0135Z" fill="#0C0C0C"></path>
    <path d="M19.8768 25.6152C19.7372 25.6152 19.604 25.5548 19.5121 25.4503L16.3499 21.8567C16.1724 21.6549 16.1918 21.348 16.3936 21.1705C16.5955 20.9925 16.9028 21.0129 17.0799 21.2143L19.8744 24.3891L25.2056 18.2286C25.3807 18.0253 25.6886 18.0039 25.8914 18.179C26.0947 18.3551 26.1166 18.6619 25.941 18.8652L20.2445 25.4469C20.1526 25.5534 20.0193 25.6147 19.8788 25.6152C19.8783 25.6152 19.8773 25.6152 19.8768 25.6152Z" fill="#0C0C0C"></path>
  </symbol>
  <symbol fill="none" xmlns="http://www.w3.org/2000/svg" viewBox="0 0 20 20" id="sms-edit">
    <path d="M9.99935 17.7083H5.83268C2.79102 17.7083 1.04102 15.9583 1.04102 12.9167V7.08332C1.04102 4.04166 2.79102 2.29166 5.83268 2.29166H14.166C17.2077 2.29166 18.9577 4.04166 18.9577 7.08332V9.58332C18.9577 9.92499 18.6743 10.2083 18.3327 10.2083C17.991 10.2083 17.7077 9.92499 17.7077 9.58332V7.08332C17.7077 4.69999 16.5493 3.54166 14.166 3.54166H5.83268C3.44935 3.54166 2.29102 4.69999 2.29102 7.08332V12.9167C2.29102 15.3 3.44935 16.4583 5.83268 16.4583H9.99935C10.341 16.4583 10.6243 16.7417 10.6243 17.0833C10.6243 17.425 10.341 17.7083 9.99935 17.7083Z" fill="currentColor"></path>
    <path d="M9.999 10.725C9.299 10.725 8.59067 10.5084 8.049 10.0667L5.44067 7.98336C5.174 7.76669 5.124 7.37503 5.34067 7.10837C5.55734 6.8417 5.94899 6.80004 6.21566 7.00837L8.824 9.09171C9.45733 9.60004 10.5323 9.60004 11.1657 9.09171L13.774 7.00837C14.0407 6.79171 14.4323 6.83337 14.649 7.10837C14.8657 7.37503 14.824 7.77502 14.549 7.98336L11.9407 10.0667C11.4073 10.5084 10.699 10.725 9.999 10.725Z" fill="currentColor"></path>
    <path d="M13.1843 18.1499C12.8676 18.1499 12.5676 18.0333 12.3509 17.8166C12.0926 17.5583 11.9759 17.1833 12.0343 16.7916L12.1926 15.6666C12.2343 15.3749 12.4093 15.0249 12.6176 14.8166L15.5676 11.8666C15.9676 11.4666 16.3593 11.2583 16.7843 11.2166C17.3009 11.1666 17.8176 11.3833 18.3009 11.8666C18.7843 12.3499 19.0009 12.8583 18.9509 13.3833C18.9093 13.7999 18.6926 14.1999 18.3009 14.5999L15.3509 17.5499C15.1426 17.7583 14.7926 17.9333 14.5009 17.9749L13.3759 18.1333C13.3093 18.1416 13.2509 18.1499 13.1843 18.1499ZM16.9259 12.4583C16.9176 12.4583 16.9093 12.4583 16.9009 12.4583C16.7843 12.4666 16.6259 12.5749 16.4509 12.7499L13.5009 15.6999C13.4759 15.7249 13.4343 15.8083 13.4343 15.8416L13.2843 16.8833L14.3259 16.7333C14.3593 16.7249 14.4426 16.6833 14.4676 16.6583L17.4176 13.7083C17.5926 13.5249 17.7009 13.3749 17.7093 13.2583C17.7259 13.0916 17.5593 12.8916 17.4176 12.7499C17.2843 12.6166 17.0926 12.4583 16.9259 12.4583Z" fill="currentColor"></path>
    <path d="M17.4338 15.2083C17.3755 15.2083 17.3171 15.1999 17.2671 15.1833C16.1671 14.8749 15.2922 14 14.9838 12.9C14.8922 12.5666 15.0838 12.2249 15.4171 12.1249C15.7505 12.0333 16.0922 12.2249 16.1838 12.5583C16.3755 13.2416 16.9171 13.7833 17.6005 13.9749C17.9338 14.0666 18.1255 14.4166 18.0338 14.75C17.9588 15.025 17.7088 15.2083 17.4338 15.2083Z" fill="currentColor"></path>
  </symbol>
  <symbol fill="none" xmlns="http://www.w3.org/2000/svg" viewBox="0 0 40 34" id="benefits-1">
    <path d="M34.4429 23.0991H5.55755C4.20644 23.0991 3.11133 22.004 3.11133 20.6529V5.55734C3.11133 4.20623 4.20644 3.11111 5.55755 3.11111H34.4424C35.7935 3.11111 36.8887 4.20623 36.8887 5.55734V20.6524C36.8891 22.004 35.794 23.0991 34.4429 23.0991Z" fill="#AECDFB"></path>
    <path d="M24.019 15.1742H9.25499C9.00966 15.1742 8.81055 14.9751 8.81055 14.7298C8.81055 14.4844 9.00966 14.2853 9.25499 14.2853H24.019C24.2648 14.2853 24.4634 14.4844 24.4634 14.7298C24.4634 14.9751 24.2648 15.1742 24.019 15.1742Z" fill="#0C0C0C"></path>
    <path d="M23.008 11.0218H5.74132C5.49599 11.0218 5.29688 10.8227 5.29688 10.5773C5.29688 10.332 5.49599 10.1329 5.74132 10.1329H23.008C23.2538 10.1329 23.4524 10.332 23.4524 10.5773C23.4524 10.8227 23.2533 11.0218 23.008 11.0218Z" fill="#0C0C0C"></path>
    <path d="M11.272 26.2102H2.44178C1.09556 26.2102 0 25.1147 0 23.7684V2.44178C0 1.09556 1.09556 0 2.44178 0H37.5582C38.9044 0 40 1.09556 40 2.44178V4.15822C40 4.40355 39.8013 4.60266 39.5555 4.60266C39.3098 4.60266 39.1111 4.40355 39.1111 4.15822V2.44178C39.1111 1.58533 38.4146 0.888888 37.5582 0.888888H2.44178C1.58533 0.888888 0.888889 1.58533 0.888889 2.44178V23.768C0.888889 24.6244 1.58533 25.3209 2.44178 25.3209H11.272C11.5173 25.3209 11.7164 25.5195 11.7164 25.7653C11.7164 26.0111 11.5173 26.2102 11.272 26.2102Z" fill="#0C0C0C"></path>
    <path d="M20.3639 26.2102H16.4933C16.2479 26.2102 16.0488 26.0115 16.0488 25.7658C16.0488 25.52 16.2479 25.3213 16.4933 25.3213H20.3639C20.6097 25.3213 20.8084 25.52 20.8084 25.7658C20.8084 26.0115 20.6097 26.2102 20.3639 26.2102Z" fill="#0C0C0C"></path>
    <path d="M37.5581 26.2102H24.2342C23.9884 26.2102 23.7897 26.0115 23.7897 25.7658C23.7897 25.52 23.9884 25.3213 24.2342 25.3213H37.5581C38.4146 25.3213 39.111 24.6249 39.111 23.7684V21.9009H4.56749C4.32216 21.9009 4.12305 21.7022 4.12305 21.4564C4.12305 21.2107 4.32216 21.012 4.56749 21.012H39.5555C39.8013 21.012 39.9999 21.2107 39.9999 21.4564V23.7684C39.9999 25.1147 38.9044 26.2102 37.5581 26.2102Z" fill="#0C0C0C"></path>
    <path d="M29.137 33.6338H11.589C11.3436 33.6338 11.1445 33.4351 11.1445 33.1893C11.1445 31.4133 12.5894 29.9684 14.3659 29.9684H14.6828L16.069 25.6302C16.1436 25.3969 16.3952 25.2662 16.6276 25.3427C16.8614 25.4173 16.9903 25.6671 16.9156 25.9013L15.4308 30.5484C15.3721 30.7324 15.2005 30.8573 15.0072 30.8573H14.3654C13.2312 30.8573 12.2836 31.6707 12.0756 32.7449H28.6494C28.4414 31.6707 27.4934 30.8573 26.3596 30.8573H25.7183C25.525 30.8573 25.3539 30.7324 25.2952 30.5484L23.8103 25.9013C23.7352 25.6675 23.8645 25.4173 24.0979 25.3427C24.333 25.2649 24.5819 25.3969 24.6565 25.6302L26.0427 29.9684H26.3596C28.1361 29.9684 29.581 31.4133 29.581 33.1893C29.5814 33.4351 29.3823 33.6338 29.137 33.6338Z" fill="#0C0C0C"></path>
    <path d="M20.8154 23.7733H19.9132C19.6679 23.7733 19.4688 23.5747 19.4688 23.3289C19.4688 23.0831 19.6679 22.8844 19.9132 22.8844H20.8154C21.0612 22.8844 21.2599 23.0831 21.2599 23.3289C21.2599 23.5747 21.0612 23.7733 20.8154 23.7733Z" fill="#0C0C0C"></path>
    <path d="M35.6874 14.3731C35.6203 14.3731 35.5527 14.357 35.4906 14.3245L32.705 12.8599L29.919 14.3245C29.7771 14.3997 29.6043 14.3874 29.4742 14.2924C29.3441 14.1977 29.279 14.0376 29.3061 13.8792L29.8379 10.7768L27.5846 8.58014C27.4697 8.46777 27.4279 8.30007 27.4778 8.14714C27.5276 7.99422 27.6598 7.88269 27.8187 7.85946L30.9333 7.40703L32.3265 4.58471C32.4684 4.29619 32.942 4.29619 33.0839 4.58471L34.4771 7.40703L37.5914 7.85946C37.7506 7.88269 37.8824 7.99422 37.9327 8.14714C37.9821 8.30007 37.9412 8.46777 37.8258 8.58014L35.5721 10.7768L36.104 13.8792C36.131 14.0376 36.0659 14.1977 35.9363 14.2924C35.8619 14.346 35.7749 14.3731 35.6874 14.3731ZM28.7873 8.57296L30.5869 10.3274C30.6862 10.4241 30.7318 10.5643 30.7081 10.7012L30.2832 13.1784L32.5082 12.0087C32.6319 11.9436 32.7781 11.9436 32.9019 12.0087L35.1264 13.1784L34.7019 10.7012C34.6782 10.5643 34.7239 10.4245 34.8231 10.3274L36.6231 8.57296L34.1358 8.21178C33.9981 8.19192 33.8794 8.10532 33.8177 7.9807L32.705 5.72614L31.5923 7.97986C31.5306 8.10448 31.4119 8.19108 31.2742 8.21093L28.7873 8.57296Z" fill="#0C0C0C"></path>
  </symbol>
  <symbol fill="none" xmlns="http://www.w3.org/2000/svg" viewBox="0 0 16 16" id="trash">
    <path d="M14.0004 4.48657C13.9871 4.48657 13.9671 4.48657 13.9471 4.48657C10.4204 4.13324 6.90043 3.9999 3.41377 4.35324L2.05377 4.48657C1.77377 4.51324 1.5271 4.31324 1.50043 4.03324C1.47377 3.75324 1.67377 3.51324 1.9471 3.48657L3.3071 3.35324C6.85377 2.99324 10.4471 3.13324 14.0471 3.48657C14.3204 3.51324 14.5204 3.7599 14.4938 4.03324C14.4738 4.29324 14.2538 4.48657 14.0004 4.48657Z" fill="currentColor"></path>
    <path d="M5.66651 3.81325C5.63984 3.81325 5.61318 3.81325 5.57984 3.80659C5.31318 3.75992 5.12651 3.49992 5.17318 3.23325L5.31984 2.35992C5.42651 1.71992 5.57318 0.833252 7.12651 0.833252H8.87318C10.4332 0.833252 10.5798 1.75325 10.6798 2.36659L10.8265 3.23325C10.8732 3.50659 10.6865 3.76659 10.4198 3.80659C10.1465 3.85325 9.88651 3.66659 9.84651 3.39992L9.69984 2.53325C9.60651 1.95325 9.58651 1.83992 8.87984 1.83992H7.13318C6.42651 1.83992 6.41318 1.93325 6.31318 2.52659L6.15984 3.39325C6.11984 3.63992 5.90651 3.81325 5.66651 3.81325Z" fill="currentColor"></path>
    <path d="M10.1396 15.1667H5.85961C3.53294 15.1667 3.43961 13.8801 3.36627 12.8401L2.93294 6.12672C2.91294 5.85338 3.12627 5.61338 3.39961 5.59338C3.67961 5.58005 3.91294 5.78672 3.93294 6.06005L4.36627 12.7734C4.43961 13.7867 4.46627 14.1667 5.85961 14.1667H10.1396C11.5396 14.1667 11.5663 13.7867 11.6329 12.7734L12.0663 6.06005C12.0863 5.78672 12.3263 5.58005 12.5996 5.59338C12.8729 5.61338 13.0863 5.84672 13.0663 6.12672L12.6329 12.8401C12.5596 13.8801 12.4663 15.1667 10.1396 15.1667Z" fill="currentColor"></path>
    <path d="M9.10672 11.5H6.88672C6.61339 11.5 6.38672 11.2733 6.38672 11C6.38672 10.7267 6.61339 10.5 6.88672 10.5H9.10672C9.38005 10.5 9.60672 10.7267 9.60672 11C9.60672 11.2733 9.38005 11.5 9.10672 11.5Z" fill="currentColor"></path>
    <path d="M9.66634 8.83325H6.33301C6.05967 8.83325 5.83301 8.60658 5.83301 8.33325C5.83301 8.05992 6.05967 7.83325 6.33301 7.83325H9.66634C9.93967 7.83325 10.1663 8.05992 10.1663 8.33325C10.1663 8.60658 9.93967 8.83325 9.66634 8.83325Z" fill="currentColor"></path>
  </symbol>
  <symbol fill="none" xmlns="http://www.w3.org/2000/svg" viewBox="0 0 24 24" id="close-square">
    <path d="M9.17035 15.5801C8.98035 15.5801 8.79035 15.5101 8.64035 15.3601C8.35035 15.0701 8.35035 14.5901 8.64035 14.3001L14.3004 8.64011C14.5904 8.35011 15.0704 8.35011 15.3604 8.64011C15.6504 8.93011 15.6504 9.41011 15.3604 9.70011L9.70035 15.3601C9.56035 15.5101 9.36035 15.5801 9.17035 15.5801Z" fill="currentColor"></path>
    <path d="M14.8304 15.5801C14.6404 15.5801 14.4504 15.5101 14.3004 15.3601L8.64035 9.70011C8.35035 9.41011 8.35035 8.93011 8.64035 8.64011C8.93035 8.35011 9.41035 8.35011 9.70035 8.64011L15.3604 14.3001C15.6504 14.5901 15.6504 15.0701 15.3604 15.3601C15.2104 15.5101 15.0204 15.5801 14.8304 15.5801Z" fill="currentColor"></path>
    <path d="M15 22.75H9C3.57 22.75 1.25 20.43 1.25 15V9C1.25 3.57 3.57 1.25 9 1.25H15C20.43 1.25 22.75 3.57 22.75 9V15C22.75 20.43 20.43 22.75 15 22.75ZM9 2.75C4.39 2.75 2.75 4.39 2.75 9V15C2.75 19.61 4.39 21.25 9 21.25H15C19.61 21.25 21.25 19.61 21.25 15V9C21.25 4.39 19.61 2.75 15 2.75H9Z" fill="currentColor"></path>
  </symbol>
  <symbol fill="none" xmlns="http://www.w3.org/2000/svg" viewBox="0 0 20 20" id="stock">
    <path d="M12.2505 18.9584H7.75046C3.63379 18.9584 1.88379 17.2001 1.88379 13.0918V9.3501C1.88379 9.00843 2.16712 8.7251 2.50879 8.7251C2.85046 8.7251 3.13379 9.00843 3.13379 9.3501V13.0918C3.13379 16.5001 4.34212 17.7084 7.75046 17.7084H12.2421C15.6505 17.7084 16.8588 16.5001 16.8588 13.0918V9.3501C16.8588 9.00843 17.1421 8.7251 17.4838 8.7251C17.8255 8.7251 18.1088 9.00843 18.1088 9.3501V13.0918C18.1171 17.2001 16.3588 18.9584 12.2505 18.9584Z" fill="#0C68F4"></path>
    <path d="M10.0002 10.6251C9.0835 10.6251 8.25016 10.2667 7.6585 9.60841C7.06683 8.95008 6.79183 8.09175 6.8835 7.17508L7.44183 1.60841C7.47516 1.29175 7.74183 1.04175 8.06683 1.04175H11.9585C12.2835 1.04175 12.5502 1.28341 12.5835 1.60841L13.1418 7.17508C13.2335 8.09175 12.9585 8.95008 12.3668 9.60841C11.7502 10.2667 10.9168 10.6251 10.0002 10.6251ZM8.62516 2.29175L8.12516 7.30008C8.06683 7.85841 8.2335 8.38341 8.5835 8.76675C9.29183 9.55008 10.7085 9.55008 11.4168 8.76675C11.7668 8.37508 11.9335 7.85008 11.8752 7.30008L11.3752 2.29175H8.62516Z" fill="#0C68F4"></path>
    <path d="M15.258 10.6251C13.5663 10.6251 12.058 9.25841 11.883 7.57508L11.2997 1.73341C11.283 1.55841 11.3413 1.38341 11.458 1.25008C11.5747 1.11675 11.7413 1.04175 11.9247 1.04175H14.4663C16.9163 1.04175 18.058 2.06675 18.3997 4.58341L18.633 6.90008C18.733 7.88341 18.433 8.81675 17.7913 9.52508C17.1497 10.2334 16.2497 10.6251 15.258 10.6251ZM12.6163 2.29175L13.133 7.45008C13.2413 8.49175 14.208 9.37508 15.258 9.37508C15.8913 9.37508 16.458 9.13342 16.8663 8.69175C17.2663 8.25008 17.4497 7.65841 17.3913 7.02508L17.158 4.73341C16.8997 2.85008 16.2913 2.29175 14.4663 2.29175H12.6163Z" fill="#0C68F4"></path>
    <path d="M4.69953 10.6251C3.70786 10.6251 2.80786 10.2334 2.1662 9.52508C1.52453 8.81675 1.22453 7.88341 1.32453 6.90008L1.54953 4.60841C1.89953 2.06675 3.0412 1.04175 5.4912 1.04175H8.03286C8.20786 1.04175 8.37453 1.11675 8.49953 1.25008C8.62453 1.38341 8.67453 1.55841 8.65786 1.73341L8.07453 7.57508C7.89953 9.25841 6.3912 10.6251 4.69953 10.6251ZM5.4912 2.29175C3.6662 2.29175 3.05786 2.84175 2.7912 4.75008L2.5662 7.02508C2.49953 7.65841 2.6912 8.25008 3.0912 8.69175C3.4912 9.13342 4.05786 9.37508 4.69953 9.37508C5.74953 9.37508 6.72453 8.49175 6.82453 7.45008L7.3412 2.29175H5.4912Z" fill="#0C68F4"></path>
    <path d="M12.0837 18.9584H7.91699C7.57533 18.9584 7.29199 18.6751 7.29199 18.3334V16.2501C7.29199 14.5001 8.25033 13.5417 10.0003 13.5417C11.7503 13.5417 12.7087 14.5001 12.7087 16.2501V18.3334C12.7087 18.6751 12.4253 18.9584 12.0837 18.9584ZM8.54199 17.7084H11.4587V16.2501C11.4587 15.2001 11.0503 14.7917 10.0003 14.7917C8.95033 14.7917 8.54199 15.2001 8.54199 16.2501V17.7084Z" fill="#0C68F4"></path>
  </symbol>
  <symbol fill="none" xmlns="http://www.w3.org/2000/svg" viewBox="0 0 26 26" id="Group">
    <path d="M25.9272 7.63971C25.8648 6.2554 25.6411 5.30825 25.3239 4.48078C24.991 3.6273 24.5489 2.89872 23.826 2.18054C23.103 1.46237 22.3801 1.00961 21.5271 0.681745C20.7002 0.359087 19.7536 0.140512 18.3701 0.0780625C16.9814 0.0156125 16.5393 0 13.013 0C9.48152 0 9.03943 0.0156125 7.65595 0.0780625C6.27248 0.140512 5.32589 0.364291 4.49892 0.681745C3.64075 1.01481 2.9126 1.45717 2.19486 2.18054C1.47712 2.90392 1.02463 3.6273 0.696961 4.48078C0.379698 5.30825 0.156053 6.2554 0.0936406 7.63971C0.0312281 9.02922 0.015625 9.47158 0.015625 13C0.015625 16.5336 0.0312281 16.976 0.0936406 18.3603C0.156053 19.7446 0.379698 20.6918 0.696961 21.5192C1.02983 22.3727 1.47192 23.1013 2.19486 23.8195C2.9126 24.5428 3.64075 24.9904 4.49372 25.3183C5.32069 25.6409 6.26728 25.8595 7.65075 25.9219C9.03943 25.9844 9.48152 26 13.0078 26C16.5393 26 16.9814 25.9844 18.3649 25.9219C19.7484 25.8595 20.695 25.6357 21.5219 25.3183C22.3749 24.9852 23.103 24.5428 23.8208 23.8195C24.5385 23.0961 24.991 22.3727 25.3187 21.5192C25.6411 20.6918 25.8596 19.7446 25.922 18.3603C25.9844 16.9708 26 16.5284 26 13C26 9.47158 25.9896 9.02402 25.9272 7.63971ZM23.5919 18.2562C23.5347 19.526 23.3215 20.2182 23.1447 20.6709C22.9106 21.2746 22.6245 21.7118 22.1669 22.1697C21.7092 22.6277 21.2775 22.9035 20.669 23.1481C20.2113 23.3251 19.5195 23.5384 18.2557 23.5957C16.8878 23.6581 16.4769 23.6737 13.0026 23.6737C9.52833 23.6737 9.11744 23.6581 7.74957 23.5957C6.48052 23.5384 5.78878 23.3251 5.33629 23.1481C4.73297 22.9139 4.29608 22.6277 3.83839 22.1697C3.3807 21.7118 3.10504 21.2798 2.86059 20.6709C2.68376 20.213 2.47052 19.5208 2.4133 18.2562C2.35089 16.8875 2.33529 16.4764 2.33529 13C2.33529 9.52362 2.35089 9.11249 2.4133 7.7438C2.47052 6.47398 2.68376 5.78183 2.86059 5.32906C3.09464 4.72538 3.3807 4.28823 3.83839 3.83026C4.29608 3.3723 4.72777 3.09648 5.33629 2.85188C5.79398 2.67494 6.48572 2.46157 7.74957 2.40432C9.11744 2.34187 9.52833 2.32626 13.0026 2.32626C16.4769 2.32626 16.8878 2.34187 18.2557 2.40432C19.5247 2.46157 20.2165 2.67494 20.669 2.85188C21.2723 3.08607 21.7092 3.3723 22.1669 3.83026C22.6245 4.28823 22.9002 4.72018 23.1447 5.32906C23.3215 5.78703 23.5347 6.47918 23.5919 7.7438C23.6544 9.11249 23.67 9.52362 23.67 13C23.67 16.4764 23.6492 16.8875 23.5919 18.2562Z" fill="white"></path>
    <path d="M13.0024 6.31784C9.30962 6.31784 6.32422 9.31023 6.32422 13C6.32422 16.6949 9.31482 19.6821 13.0024 19.6821C16.6899 19.6821 19.6805 16.6845 19.6805 13C19.6805 9.30503 16.6951 6.31784 13.0024 6.31784ZM13.0024 17.3351C10.6099 17.3351 8.66989 15.3939 8.66989 13C8.66989 10.6061 10.6099 8.66492 13.0024 8.66492C15.3948 8.66492 17.3348 10.6061 17.3348 13C17.3348 15.3939 15.3948 17.3351 13.0024 17.3351Z" fill="white"></path>
    <path d="M19.9412 7.6189C20.8029 7.6189 21.5015 6.9199 21.5015 6.05765C21.5015 5.19539 20.8029 4.4964 19.9412 4.4964C19.0794 4.4964 18.3809 5.19539 18.3809 6.05765C18.3809 6.9199 19.0794 7.6189 19.9412 7.6189Z" fill="white"></path>
  </symbol>
  <symbol fill="none" xmlns="http://www.w3.org/2000/svg" viewBox="0 0 24 24" id="message-question">
    <path d="M8 22.3199C7.72 22.3199 7.42998 22.2499 7.16998 22.1099C6.59998 21.8099 6.25 21.2099 6.25 20.5699V19.15C3.23 18.84 1.25 16.6199 1.25 13.4399V7.43994C1.25 3.99994 3.56 1.68994 7 1.68994H17C20.44 1.68994 22.75 3.99994 22.75 7.43994V13.4399C22.75 16.8799 20.44 19.1899 17 19.1899H13.23L8.96997 22.03C8.67997 22.22 8.34 22.3199 8 22.3199ZM7 3.17993C4.42 3.17993 2.75 4.84993 2.75 7.42993V13.43C2.75 16.01 4.42 17.68 7 17.68C7.41 17.68 7.75 18.02 7.75 18.43V20.56C7.75 20.69 7.83 20.75 7.88 20.78C7.93001 20.81 8.03001 20.84 8.14001 20.77L12.59 17.81C12.71 17.73 12.86 17.68 13.01 17.68H17.01C19.59 17.68 21.26 16.01 21.26 13.43V7.42993C21.26 4.84993 19.59 3.17993 17.01 3.17993H7Z" fill="#2D2D2D"></path>
    <path d="M11.9998 12.11C11.5898 12.11 11.2498 11.77 11.2498 11.36V11.15C11.2498 9.99002 12.0998 9.42001 12.4198 9.20001C12.7898 8.95001 12.9098 8.78002 12.9098 8.52002C12.9098 8.02002 12.4998 7.60999 11.9998 7.60999C11.4998 7.60999 11.0898 8.02002 11.0898 8.52002C11.0898 8.93002 10.7498 9.27002 10.3398 9.27002C9.92984 9.27002 9.58984 8.93002 9.58984 8.52002C9.58984 7.19002 10.6698 6.10999 11.9998 6.10999C13.3298 6.10999 14.4098 7.19002 14.4098 8.52002C14.4098 9.66002 13.5698 10.23 13.2598 10.44C12.8698 10.7 12.7498 10.87 12.7498 11.15V11.36C12.7498 11.78 12.4098 12.11 11.9998 12.11Z" fill="#2D2D2D"></path>
    <path d="M12 14.6C11.58 14.6 11.25 14.26 11.25 13.85C11.25 13.44 11.59 13.1 12 13.1C12.41 13.1 12.75 13.44 12.75 13.85C12.75 14.26 12.42 14.6 12 14.6Z" fill="#2D2D2D"></path>
  </symbol>
  <symbol fill="none" xmlns="http://www.w3.org/2000/svg" viewBox="0 0 20 20" id="heart">
    <path d="M10.0003 18.0416C9.74199 18.0416 9.49199 18.0083 9.28366 17.9333C6.10033 16.8416 1.04199 12.9666 1.04199 7.24158C1.04199 4.32492 3.40033 1.95825 6.30033 1.95825C7.70866 1.95825 9.02533 2.50825 10.0003 3.49159C10.9753 2.50825 12.292 1.95825 13.7003 1.95825C16.6003 1.95825 18.9587 4.33325 18.9587 7.24158C18.9587 12.9749 13.9003 16.8416 10.717 17.9333C10.5087 18.0083 10.2587 18.0416 10.0003 18.0416ZM6.30033 3.20825C4.09199 3.20825 2.29199 5.01658 2.29199 7.24158C2.29199 12.9333 7.76699 16.0999 9.69199 16.7583C9.84199 16.8083 10.167 16.8083 10.317 16.7583C12.2337 16.0999 17.717 12.9416 17.717 7.24158C17.717 5.01658 15.917 3.20825 13.7087 3.20825C12.442 3.20825 11.267 3.79992 10.5087 4.82492C10.2753 5.14159 9.74199 5.14159 9.50866 4.82492C8.73366 3.79159 7.56699 3.20825 6.30033 3.20825Z" fill="#2D2D2D"></path>
  </symbol>
  <symbol fill="none" xmlns="http://www.w3.org/2000/svg" viewBox="0 0 24 24" id="search">
    <g id="vuesax/linear/search-normal">
      <g id="search-normal">
        <path id="Vector" d="M11.5 21C16.7467 21 21 16.7467 21 11.5C21 6.25329 16.7467 2 11.5 2C6.25329 2 2 6.25329 2 11.5C2 16.7467 6.25329 21 11.5 21Z" stroke="currentColor" stroke-width="1.5" stroke-linecap="round" stroke-linejoin="round"></path>
        <path id="Vector_2" d="M22 22L20 20" stroke="currentColor" stroke-width="1.5" stroke-linecap="round" stroke-linejoin="round"></path>
      </g>
    </g>
  </symbol>
  <symbol fill="none" xmlns="http://www.w3.org/2000/svg" viewBox="0 0 20 20" id="location">
    <path d="M10.0004 11.8083C8.22539 11.8083 6.77539 10.3666 6.77539 8.58327C6.77539 6.79994 8.22539 5.36661 10.0004 5.36661C11.7754 5.36661 13.2254 6.80827 13.2254 8.59161C13.2254 10.3749 11.7754 11.8083 10.0004 11.8083ZM10.0004 6.61661C8.91706 6.61661 8.02539 7.49994 8.02539 8.59161C8.02539 9.68327 8.90872 10.5666 10.0004 10.5666C11.0921 10.5666 11.9754 9.68327 11.9754 8.59161C11.9754 7.49994 11.0837 6.61661 10.0004 6.61661Z" fill="#CBCBCB"></path>
    <path d="M9.99941 18.9666C8.76608 18.9666 7.52441 18.4999 6.55775 17.5749C4.09941 15.2083 1.38275 11.4333 2.40775 6.9416C3.33275 2.8666 6.89108 1.0416 9.99941 1.0416C9.99941 1.0416 9.99942 1.0416 10.0077 1.0416C13.1161 1.0416 16.6744 2.8666 17.5994 6.94993C18.6161 11.4416 15.8994 15.2083 13.4411 17.5749C12.4744 18.4999 11.2327 18.9666 9.99941 18.9666ZM9.99941 2.2916C7.57441 2.2916 4.45775 3.58326 3.63275 7.2166C2.73275 11.1416 5.19941 14.5249 7.43275 16.6666C8.87441 18.0583 11.1327 18.0583 12.5744 16.6666C14.7994 14.5249 17.2661 11.1416 16.3827 7.2166C15.5494 3.58326 12.4244 2.2916 9.99941 2.2916Z" fill="#CBCBCB"></path>
  </symbol>
  <symbol fill="none" xmlns="http://www.w3.org/2000/svg" viewBox="0 0 24 24" id="user">
    <g id="vuesax/outline/user">
      <g id="user">
        <path id="Vector" d="M12 12.75C8.83 12.75 6.25 10.17 6.25 7C6.25 3.83 8.83 1.25 12 1.25C15.17 1.25 17.75 3.83 17.75 7C17.75 10.17 15.17 12.75 12 12.75ZM12 2.75C9.66 2.75 7.75 4.66 7.75 7C7.75 9.34 9.66 11.25 12 11.25C14.34 11.25 16.25 9.34 16.25 7C16.25 4.66 14.34 2.75 12 2.75Z" fill="currentColor"></path>
        <path id="Vector_2" d="M20.5901 22.75C20.1801 22.75 19.8401 22.41 19.8401 22C19.8401 18.55 16.3202 15.75 12.0002 15.75C7.68015 15.75 4.16016 18.55 4.16016 22C4.16016 22.41 3.82016 22.75 3.41016 22.75C3.00016 22.75 2.66016 22.41 2.66016 22C2.66016 17.73 6.85015 14.25 12.0002 14.25C17.1502 14.25 21.3401 17.73 21.3401 22C21.3401 22.41 21.0001 22.75 20.5901 22.75Z" fill="currentColor"></path>
      </g>
    </g>
  </symbol>
  <symbol fill="none" xmlns="http://www.w3.org/2000/svg" viewBox="0 0 62 31" id="benefits-3">
    <g id="benefits-3">
      <g id="Group 4">
        <path id="Vector" d="M42.7832 3.44376H16.0254V23.4704H42.7832V3.44376Z" fill="#AECDFB"></path>
        <g id="Group">
          <path id="Vector_2" d="M45.5398 26.9149H30.7356C30.3554 26.9149 30.0467 26.6069 30.0467 26.226C30.0467 25.845 30.3554 25.5371 30.7356 25.5371H44.851V1.37778H13.9598V3.8006C13.9598 4.18087 13.6512 4.48949 13.2709 4.48949C12.8907 4.48949 12.582 4.18087 12.582 3.8006V0.688889C12.582 0.308622 12.8907 0 13.2709 0H45.5398C45.9208 0 46.2287 0.308622 46.2287 0.688889V26.226C46.2287 26.6063 45.9208 26.9149 45.5398 26.9149Z" fill="#0C0C0C"></path>
          <path id="Vector_3" d="M19.0714 26.9149H13.2709C12.8907 26.9149 12.582 26.607 12.582 26.226V22.7561C12.582 22.3751 12.8907 22.0672 13.2709 22.0672C13.6512 22.0672 13.9598 22.3751 13.9598 22.7561V25.5371H19.0714C19.4516 25.5371 19.7603 25.845 19.7603 26.226C19.7603 26.607 19.4516 26.9149 19.0714 26.9149Z" fill="#0C0C0C"></path>
          <path id="Vector_4" d="M61.3106 26.9149C60.9317 26.9149 60.6245 26.6097 60.6217 26.2308L60.5563 16.492L53.4938 9.07887H46.2274V25.5371H50.1437C50.5247 25.5371 50.8326 25.845 50.8326 26.226C50.8326 26.607 50.5247 26.9149 50.1437 26.9149H45.5385C45.1575 26.9149 44.8496 26.607 44.8496 26.226V8.38998C44.8496 8.00972 45.1575 7.7011 45.5385 7.7011H53.7893C53.9774 7.7011 54.1579 7.77825 54.2881 7.91465L61.7418 15.739C61.8631 15.8665 61.9306 16.0346 61.932 16.2096L61.9995 26.2212C62.0022 26.6021 61.6957 26.9121 61.3154 26.9149C61.314 26.9149 61.312 26.9149 61.3106 26.9149Z" fill="#0C0C0C"></path>
          <path id="Vector_5" d="M55.7254 16.9026H49.894C49.513 16.9026 49.2051 16.5946 49.2051 16.2137V8.38998C49.2051 8.00972 49.513 7.7011 49.894 7.7011C50.2749 7.7011 50.5829 8.00972 50.5829 8.38998V15.5255H55.7254C56.1064 15.5255 56.4143 15.8341 56.4143 16.2144C56.4143 16.5946 56.1057 16.9026 55.7254 16.9026Z" fill="#0C0C0C"></path>
          <path id="Vector_6" d="M22.7153 30.5598C20.3256 30.5598 18.3809 28.6158 18.3809 26.226C18.3809 23.8362 20.3249 21.8922 22.7153 21.8922C25.1051 21.8922 27.0491 23.8362 27.0491 26.226C27.0491 28.6158 25.1044 30.5598 22.7153 30.5598ZM22.7153 23.27C21.0854 23.27 19.7586 24.5961 19.7586 26.226C19.7586 27.8559 21.0847 29.182 22.7153 29.182C24.3459 29.182 25.6714 27.8559 25.6714 26.226C25.6714 24.5961 24.3453 23.27 22.7153 23.27Z" fill="#0C0C0C"></path>
          <path id="Vector_7" d="M53.7896 30.5598C51.3991 30.5598 49.4551 28.6158 49.4551 26.226C49.4551 23.8362 51.3991 21.8922 53.7896 21.8922C56.1793 21.8922 58.1234 23.8362 58.1234 26.226C58.1234 28.6158 56.1793 30.5598 53.7896 30.5598ZM53.7896 23.27C52.1597 23.27 50.8329 24.5961 50.8329 26.226C50.8329 27.8559 52.1597 29.182 53.7896 29.182C55.4195 29.182 56.7456 27.8559 56.7456 26.226C56.7456 24.5961 55.4195 23.27 53.7896 23.27Z" fill="#0C0C0C"></path>
          <path id="Vector_8" d="M29.4045 14.1456H0.688889C0.308622 14.1456 0 13.837 0 13.4568C0 13.0765 0.308622 12.7679 0.688889 12.7679H29.4045C29.7848 12.7679 30.0934 13.0765 30.0934 13.4568C30.0934 13.837 29.7848 14.1456 29.4045 14.1456Z" fill="#0C0C0C"></path>
          <path id="Vector_9" d="M29.405 8.31351H7.9799C7.59964 8.31351 7.29102 8.00489 7.29102 7.62462C7.29102 7.24435 7.59964 6.93573 7.9799 6.93573H29.4057C29.786 6.93573 30.0946 7.24435 30.0946 7.62462C30.0946 8.00489 29.7853 8.31351 29.405 8.31351Z" fill="#0C0C0C"></path>
          <path id="Vector_10" d="M29.405 19.9778H7.9799C7.59964 19.9778 7.29102 19.6699 7.29102 19.2889C7.29102 18.9079 7.59964 18.6 7.9799 18.6H29.4057C29.786 18.6 30.0946 18.9079 30.0946 19.2889C30.0946 19.6699 29.7853 19.9778 29.405 19.9778Z" fill="#0C0C0C"></path>
        </g>
      </g>
    </g>
  </symbol>
<symbol fill="none" xmlns="http://www.w3.org/2000/svg" viewBox="0 0 16 16" id="filters">
    <g>
      <g id="filters">
        <path id="Vector" d="M14.667 4.83325H10.667C10.3937 4.83325 10.167 4.60659 10.167 4.33325C10.167 4.05992 10.3937 3.83325 10.667 3.83325H14.667C14.9403 3.83325 15.167 4.05992 15.167 4.33325C15.167 4.60659 14.9403 4.83325 14.667 4.83325Z" fill="#292D32"></path>
        <path id="Vector_2" d="M3.99967 4.83325H1.33301C1.05967 4.83325 0.833008 4.60659 0.833008 4.33325C0.833008 4.05992 1.05967 3.83325 1.33301 3.83325H3.99967C4.27301 3.83325 4.49967 4.05992 4.49967 4.33325C4.49967 4.60659 4.27301 4.83325 3.99967 4.83325Z" fill="#292D32"></path>
        <path id="Vector_3" d="M6.66634 7.16667C5.10634 7.16667 3.83301 5.89333 3.83301 4.33333C3.83301 2.77333 5.10634 1.5 6.66634 1.5C8.22634 1.5 9.49967 2.77333 9.49967 4.33333C9.49967 5.89333 8.22634 7.16667 6.66634 7.16667ZM6.66634 2.5C5.65301 2.5 4.83301 3.32 4.83301 4.33333C4.83301 5.34667 5.65301 6.16667 6.66634 6.16667C7.67967 6.16667 8.49967 5.34667 8.49967 4.33333C8.49967 3.32 7.67967 2.5 6.66634 2.5Z" fill="#292D32"></path>
        <path id="Vector_4" d="M14.6667 12.1667H12C11.7267 12.1667 11.5 11.9401 11.5 11.6667C11.5 11.3934 11.7267 11.1667 12 11.1667H14.6667C14.94 11.1667 15.1667 11.3934 15.1667 11.6667C15.1667 11.9401 14.94 12.1667 14.6667 12.1667Z" fill="#292D32"></path>
        <path id="Vector_5" d="M5.33301 12.1667H1.33301C1.05967 12.1667 0.833008 11.9401 0.833008 11.6667C0.833008 11.3934 1.05967 11.1667 1.33301 11.1667H5.33301C5.60634 11.1667 5.83301 11.3934 5.83301 11.6667C5.83301 11.9401 5.60634 12.1667 5.33301 12.1667Z" fill="#292D32"></path>
        <path id="Vector_6" d="M9.33333 14.4999C7.77333 14.4999 6.5 13.2266 6.5 11.6666C6.5 10.1066 7.77333 8.83325 9.33333 8.83325C10.8933 8.83325 12.1667 10.1066 12.1667 11.6666C12.1667 13.2266 10.8933 14.4999 9.33333 14.4999ZM9.33333 9.83325C8.32 9.83325 7.5 10.6533 7.5 11.6666C7.5 12.6799 8.32 13.4999 9.33333 13.4999C10.3467 13.4999 11.1667 12.6799 11.1667 11.6666C11.1667 10.6533 10.3467 9.83325 9.33333 9.83325Z" fill="#292D32"></path>
      </g>
    </g>
  </symbol>
  <symbol fill="none" xmlns="http://www.w3.org/2000/svg" viewBox="0 0 24 24" id="dislike-button">
    <path d="M10.7996 22.1C10.5096 22.1 10.2196 22.05 9.94955 21.95C8.69955 21.54 7.89955 20.16 8.17955 18.88L8.66955 15.73C8.67955 15.66 8.67955 15.56 8.60955 15.48C8.55955 15.43 8.48955 15.4 8.40955 15.4H4.40955C3.42955 15.4 2.57955 14.99 2.07955 14.28C1.58955 13.59 1.48955 12.68 1.80955 11.8L4.19955 4.52002C4.56955 3.07002 6.11955 1.90002 7.71955 1.90002H11.5196C12.0796 1.90002 13.2996 2.07002 13.9496 2.72002L16.9796 5.06002L16.0596 6.25002L12.9596 3.85002C12.7096 3.60002 12.0796 3.40002 11.5196 3.40002H7.71955C6.81955 3.40002 5.84955 4.12002 5.64955 4.93002L3.22955 12.28C3.06955 12.72 3.09955 13.12 3.30955 13.41C3.52955 13.72 3.92955 13.9 4.41955 13.9H8.41955C8.93955 13.9 9.41955 14.12 9.74955 14.5C10.0896 14.89 10.2396 15.41 10.1596 15.95L9.65955 19.16C9.53955 19.72 9.91955 20.35 10.4596 20.53C10.9396 20.71 11.5796 20.45 11.7996 20.13L15.8996 14.03L17.1396 14.87L13.0396 20.97C12.5696 21.67 11.6796 22.1 10.7996 22.1Z" fill="#0C68F4"></path>
    <path d="M19.6201 18.1H18.6201C16.7701 18.1 15.8701 17.23 15.8701 15.45V5.65C15.8701 3.87 16.7701 3 18.6201 3H19.6201C21.4701 3 22.3701 3.87 22.3701 5.65V15.45C22.3701 17.23 21.4701 18.1 19.6201 18.1ZM18.6201 4.5C17.5301 4.5 17.3701 4.76 17.3701 5.65V15.45C17.3701 16.34 17.5301 16.6 18.6201 16.6H19.6201C20.7101 16.6 20.8701 16.34 20.8701 15.45V5.65C20.8701 4.76 20.7101 4.5 19.6201 4.5H18.6201Z" fill="#0C68F4"></path>
  </symbol>
  <symbol fill="none" xmlns="http://www.w3.org/2000/svg" viewBox="0 0 24 24" id="dollar-circle">
    <path d="M13.4002 17.4201H10.8902C9.25016 17.4201 7.92016 16.0401 7.92016 14.3401C7.92016 13.9301 8.26016 13.5901 8.67016 13.5901C9.08016 13.5901 9.42016 13.9301 9.42016 14.3401C9.42016 15.2101 10.0802 15.9201 10.8902 15.9201H13.4002C14.0502 15.9201 14.5902 15.3401 14.5902 14.6401C14.5902 13.7701 14.2802 13.6001 13.7702 13.4201L9.74016 12.0001C8.96016 11.7301 7.91016 11.1501 7.91016 9.36008C7.91016 7.82008 9.12016 6.58008 10.6002 6.58008H13.1102C14.7502 6.58008 16.0802 7.96008 16.0802 9.66008C16.0802 10.0701 15.7402 10.4101 15.3302 10.4101C14.9202 10.4101 14.5802 10.0701 14.5802 9.66008C14.5802 8.79008 13.9202 8.08008 13.1102 8.08008H10.6002C9.95016 8.08008 9.41016 8.66008 9.41016 9.36008C9.41016 10.2301 9.72016 10.4001 10.2302 10.5801L14.2602 12.0001C15.0402 12.2701 16.0902 12.8501 16.0902 14.6401C16.0802 16.1701 14.8802 17.4201 13.4002 17.4201Z" fill="#0C0C0C"></path>
    <path d="M12 18.75C11.59 18.75 11.25 18.41 11.25 18V6C11.25 5.59 11.59 5.25 12 5.25C12.41 5.25 12.75 5.59 12.75 6V18C12.75 18.41 12.41 18.75 12 18.75Z" fill="#0C0C0C"></path>
    <path d="M12 22.75C6.07 22.75 1.25 17.93 1.25 12C1.25 6.07 6.07 1.25 12 1.25C17.93 1.25 22.75 6.07 22.75 12C22.75 17.93 17.93 22.75 12 22.75ZM12 2.75C6.9 2.75 2.75 6.9 2.75 12C2.75 17.1 6.9 21.25 12 21.25C17.1 21.25 21.25 17.1 21.25 12C21.25 6.9 17.1 2.75 12 2.75Z" fill="#0C0C0C"></path>
  </symbol>
  <symbol fill="none" xmlns="http://www.w3.org/2000/svg" viewBox="0 0 24 24" id="discount">
    <path d="M21.5299 10.8699L20.0099 9.34988C19.7499 9.08988 19.5399 8.57988 19.5399 8.21988V6.05988C19.5399 5.17988 18.8199 4.45988 17.9399 4.45988H15.7899C15.4299 4.45988 14.9199 4.24988 14.6599 3.98988L13.1399 2.46988C12.5199 1.84988 11.4999 1.84988 10.8799 2.46988L9.33988 3.98988C9.08988 4.24988 8.57988 4.45988 8.20988 4.45988H6.05988C5.17988 4.45988 4.45988 5.17988 4.45988 6.05988V8.20988C4.45988 8.56988 4.24988 9.07988 3.98988 9.33988L2.46988 10.8599C1.84988 11.4799 1.84988 12.4999 2.46988 13.1199L3.98988 14.6399C4.24988 14.8999 4.45988 15.4099 4.45988 15.7699V17.9199C4.45988 18.7999 5.17988 19.5199 6.05988 19.5199H8.20988C8.56988 19.5199 9.07988 19.7299 9.33988 19.9899L10.8599 21.5099C11.4799 22.1299 12.4999 22.1299 13.1199 21.5099L14.6399 19.9899C14.8999 19.7299 15.4099 19.5199 15.7699 19.5199H17.9199C18.7999 19.5199 19.5199 18.7999 19.5199 17.9199V15.7699C19.5199 15.4099 19.7299 14.8999 19.9899 14.6399L21.5099 13.1199C22.1599 12.5099 22.1599 11.4899 21.5299 10.8699ZM7.99988 8.99988C7.99988 8.44988 8.44988 7.99988 8.99988 7.99988C9.54988 7.99988 9.99988 8.44988 9.99988 8.99988C9.99988 9.54988 9.55988 9.99988 8.99988 9.99988C8.44988 9.99988 7.99988 9.54988 7.99988 8.99988ZM9.52988 15.5299C9.37988 15.6799 9.18988 15.7499 8.99988 15.7499C8.80988 15.7499 8.61988 15.6799 8.46988 15.5299C8.17988 15.2399 8.17988 14.7599 8.46988 14.4699L14.4699 8.46988C14.7599 8.17988 15.2399 8.17988 15.5299 8.46988C15.8199 8.75988 15.8199 9.23988 15.5299 9.52988L9.52988 15.5299ZM14.9999 15.9999C14.4399 15.9999 13.9899 15.5499 13.9899 14.9999C13.9899 14.4499 14.4399 13.9999 14.9899 13.9999C15.5399 13.9999 15.9899 14.4499 15.9899 14.9999C15.9899 15.5499 15.5499 15.9999 14.9999 15.9999Z" fill="#F45E0C"></path>
  </symbol>
  <symbol fill="none" xmlns="http://www.w3.org/2000/svg" viewBox="0 0 32 32" id="facebook">
    <path fill-rule="evenodd" clip-rule="evenodd" d="M23.9993 5.33332H7.99935C6.52659 5.33332 5.33268 6.52723 5.33268 7.99999V24C5.33268 25.4728 6.52659 26.6667 7.99935 26.6667H23.9993C25.4721 26.6667 26.666 25.4728 26.666 24V7.99999C26.666 6.52723 25.4721 5.33332 23.9993 5.33332ZM7.99935 2.66666C5.05383 2.66666 2.66602 5.05447 2.66602 7.99999V24C2.66602 26.9455 5.05383 29.3333 7.99935 29.3333H23.9993C26.9448 29.3333 29.3327 26.9455 29.3327 24V7.99999C29.3327 5.05447 26.9448 2.66666 23.9993 2.66666H7.99935Z" fill="currentColor"></path>
    <path fill-rule="evenodd" clip-rule="evenodd" d="M15.8896 13.3333C15.8896 11.1242 17.6804 9.33334 19.8896 9.33334H22.6673V12H19.8896C19.1532 12 18.5563 12.597 18.5563 13.3333V16H22.6673V18.6667H18.5563V26.6667H15.8896V18.6667H13.334V16H15.8896V13.3333Z" fill="currentColor"></path>
  </symbol>
  <symbol fill="none" xmlns="http://www.w3.org/2000/svg" viewBox="0 0 24 24" id="bag">
    <path d="M16.5 8.63005C16.09 8.63005 15.75 8.29005 15.75 7.88005V6.50005C15.75 5.45006 15.3 4.43005 14.52 3.72005C13.73 3.00005 12.71 2.67005 11.63 2.77005C9.83 2.94005 8.25 4.78005 8.25 6.70005V7.67005C8.25 8.08005 7.91 8.42005 7.5 8.42005C7.09 8.42005 6.75 8.08005 6.75 7.67005V6.69005C6.75 4.00005 8.92 1.52005 11.49 1.27005C12.99 1.13005 14.43 1.60005 15.53 2.61005C16.62 3.60005 17.25 5.02005 17.25 6.50005V7.88005C17.25 8.29005 16.91 8.63005 16.5 8.63005Z" fill="#0C0C0C"></path>
    <path d="M14.9998 22.75H8.99982C4.37982 22.75 3.51982 20.6 3.29982 18.51L2.54982 12.52C2.43982 11.44 2.39982 9.89 3.44982 8.73C4.34982 7.73 5.83982 7.25 7.99982 7.25H15.9998C18.1698 7.25 19.6598 7.74 20.5498 8.73C21.5898 9.89 21.5598 11.44 21.4498 12.5L20.6998 18.51C20.4798 20.6 19.6198 22.75 14.9998 22.75ZM7.99982 8.75C6.30982 8.75 5.14982 9.08 4.55982 9.74C4.06982 10.28 3.90982 11.11 4.03982 12.35L4.78982 18.34C4.95982 19.94 5.39982 21.26 8.99982 21.26H14.9998C18.5998 21.26 19.0398 19.95 19.2098 18.36L19.9598 12.35C20.0898 11.13 19.9298 10.3 19.4398 9.75C18.8498 9.08 17.6898 8.75 15.9998 8.75H7.99982Z" fill="#0C0C0C"></path>
    <path d="M15.4202 13.1499C14.8602 13.1499 14.4102 12.6999 14.4102 12.1499C14.4102 11.5999 14.8602 11.1499 15.4102 11.1499C15.9602 11.1499 16.4102 11.5999 16.4102 12.1499C16.4102 12.6999 15.9702 13.1499 15.4202 13.1499Z" fill="#0C0C0C"></path>
    <path d="M8.42016 13.1499C7.86016 13.1499 7.41016 12.6999 7.41016 12.1499C7.41016 11.5999 7.86016 11.1499 8.41016 11.1499C8.96016 11.1499 9.41016 11.5999 9.41016 12.1499C9.41016 12.6999 8.97016 13.1499 8.42016 13.1499Z" fill="#0C0C0C"></path>
  </symbol>
  <symbol fill="none" xmlns="http://www.w3.org/2000/svg" viewBox="0 0 24 24" id="cart">
    <g id="vuesax/outline/bag">
      <g id="bag">
        <path id="Vector" d="M5.18988 6.37994C4.99988 6.37994 4.79988 6.29994 4.65988 6.15994C4.36988 5.86994 4.36988 5.38994 4.65988 5.09994L8.28988 1.46994C8.57988 1.17994 9.05988 1.17994 9.34988 1.46994C9.63988 1.75994 9.63988 2.23994 9.34988 2.52994L5.71988 6.15994C5.56988 6.29994 5.37988 6.37994 5.18988 6.37994Z" fill="#0C0C0C"></path>
        <path id="Vector_2" d="M18.8101 6.37994C18.6201 6.37994 18.4301 6.30994 18.2801 6.15994L14.6501 2.52994C14.3601 2.23994 14.3601 1.75994 14.6501 1.46994C14.9401 1.17994 15.4201 1.17994 15.7101 1.46994L19.3401 5.09994C19.6301 5.38994 19.6301 5.86994 19.3401 6.15994C19.2001 6.29994 19.0001 6.37994 18.8101 6.37994Z" fill="#0C0C0C"></path>
        <path id="Vector_3" d="M20.21 10.6001C20.14 10.6001 20.07 10.6001 20 10.6001H19.77H4C3.3 10.6101 2.5 10.6101 1.92 10.0301C1.46 9.5801 1.25 8.8801 1.25 7.8501C1.25 5.1001 3.26 5.1001 4.22 5.1001H19.78C20.74 5.1001 22.75 5.1001 22.75 7.8501C22.75 8.8901 22.54 9.5801 22.08 10.0301C21.56 10.5501 20.86 10.6001 20.21 10.6001ZM4.22 9.1001H20.01C20.46 9.1101 20.88 9.1101 21.02 8.9701C21.09 8.9001 21.24 8.6601 21.24 7.8501C21.24 6.7201 20.96 6.6001 19.77 6.6001H4.22C3.03 6.6001 2.75 6.7201 2.75 7.8501C2.75 8.6601 2.91 8.9001 2.97 8.9701C3.11 9.1001 3.54 9.1001 3.98 9.1001H4.22Z" fill="#0C0C0C"></path>
        <path id="Vector_4" d="M9.75977 18.3C9.34977 18.3 9.00977 17.96 9.00977 17.55V14C9.00977 13.59 9.34977 13.25 9.75977 13.25C10.1698 13.25 10.5098 13.59 10.5098 14V17.55C10.5098 17.97 10.1698 18.3 9.75977 18.3Z" fill="#0C0C0C"></path>
        <path id="Vector_5" d="M14.3604 18.3C13.9504 18.3 13.6104 17.96 13.6104 17.55V14C13.6104 13.59 13.9504 13.25 14.3604 13.25C14.7704 13.25 15.1104 13.59 15.1104 14V17.55C15.1104 17.97 14.7704 18.3 14.3604 18.3Z" fill="#0C0C0C"></path>
        <path id="Vector_6" d="M14.8898 22.75H8.85975C5.27975 22.75 4.47975 20.62 4.16975 18.77L2.75975 10.12C2.68975 9.71 2.96975 9.33 3.37975 9.26C3.78975 9.19 4.16975 9.47 4.23975 9.88L5.64975 18.52C5.93975 20.29 6.53975 21.25 8.85975 21.25H14.8898C17.4598 21.25 17.7498 20.35 18.0798 18.61L19.7598 9.86C19.8398 9.45 20.2298 9.18 20.6398 9.27C21.0498 9.35 21.3098 9.74 21.2298 10.15L19.5498 18.9C19.1598 20.93 18.5098 22.75 14.8898 22.75Z" fill="#0C0C0C"></path>
      </g>
    </g>
  </symbol>
  <symbol fill="none" xmlns="http://www.w3.org/2000/svg" viewBox="0 0 25 24" id="shopping-cart">
    <path d="M18.69 17.75H8.03999C7.04999 17.75 6.09999 17.33 5.42999 16.6C4.75999 15.87 4.42 14.89 4.5 13.9L5.33 3.94C5.36 3.63 5.24999 3.33001 5.03999 3.10001C4.82999 2.87001 4.54 2.75 4.23 2.75H2.5C2.09 2.75 1.75 2.41 1.75 2C1.75 1.59 2.09 1.25 2.5 1.25H4.24001C4.97001 1.25 5.65999 1.56 6.14999 2.09C6.41999 2.39 6.62 2.74 6.73 3.13H19.22C20.23 3.13 21.16 3.53 21.84 4.25C22.51 4.98 22.85 5.93 22.77 6.94L22.23 14.44C22.12 16.27 20.52 17.75 18.69 17.75ZM6.78 4.62L6 14.02C5.95 14.6 6.14 15.15 6.53 15.58C6.92 16.01 7.45999 16.24 8.03999 16.24H18.69C19.73 16.24 20.67 15.36 20.75 14.32L21.29 6.82001C21.33 6.23001 21.14 5.67001 20.75 5.26001C20.36 4.84001 19.82 4.60999 19.23 4.60999H6.78V4.62Z" fill="currentColor"></path>
    <path d="M16.75 22.75C15.65 22.75 14.75 21.85 14.75 20.75C14.75 19.65 15.65 18.75 16.75 18.75C17.85 18.75 18.75 19.65 18.75 20.75C18.75 21.85 17.85 22.75 16.75 22.75ZM16.75 20.25C16.47 20.25 16.25 20.47 16.25 20.75C16.25 21.03 16.47 21.25 16.75 21.25C17.03 21.25 17.25 21.03 17.25 20.75C17.25 20.47 17.03 20.25 16.75 20.25Z" fill="currentColor"></path>
    <path d="M8.75 22.75C7.65 22.75 6.75 21.85 6.75 20.75C6.75 19.65 7.65 18.75 8.75 18.75C9.85 18.75 10.75 19.65 10.75 20.75C10.75 21.85 9.85 22.75 8.75 22.75ZM8.75 20.25C8.47 20.25 8.25 20.47 8.25 20.75C8.25 21.03 8.47 21.25 8.75 21.25C9.03 21.25 9.25 21.03 9.25 20.75C9.25 20.47 9.03 20.25 8.75 20.25Z" fill="currentColor"></path>
    <path d="M21.5 8.75H9.5C9.09 8.75 8.75 8.41 8.75 8C8.75 7.59 9.09 7.25 9.5 7.25H21.5C21.91 7.25 22.25 7.59 22.25 8C22.25 8.41 21.91 8.75 21.5 8.75Z" fill="currentColor"></path>
  </symbol>
  <symbol fill="none" xmlns="http://www.w3.org/2000/svg" viewBox="0 0 24 24" id="close-circle">
    <path d="M12 22.75C6.07 22.75 1.25 17.93 1.25 12C1.25 6.07 6.07 1.25 12 1.25C17.93 1.25 22.75 6.07 22.75 12C22.75 17.93 17.93 22.75 12 22.75ZM12 2.75C6.9 2.75 2.75 6.9 2.75 12C2.75 17.1 6.9 21.25 12 21.25C17.1 21.25 21.25 17.1 21.25 12C21.25 6.9 17.1 2.75 12 2.75Z" fill="#444444"></path>
    <path d="M9.17035 15.5801C8.98035 15.5801 8.79035 15.5101 8.64035 15.3601C8.35035 15.0701 8.35035 14.5901 8.64035 14.3001L14.3004 8.64011C14.5904 8.35011 15.0704 8.35011 15.3604 8.64011C15.6504 8.93011 15.6504 9.41011 15.3604 9.70011L9.70035 15.3601C9.56035 15.5101 9.36035 15.5801 9.17035 15.5801Z" fill="#444444"></path>
    <path d="M14.8304 15.5801C14.6404 15.5801 14.4504 15.5101 14.3004 15.3601L8.64035 9.70011C8.35035 9.41011 8.35035 8.93011 8.64035 8.64011C8.93035 8.35011 9.41035 8.35011 9.70035 8.64011L15.3604 14.3001C15.6504 14.5901 15.6504 15.0701 15.3604 15.3601C15.2104 15.5101 15.0204 15.5801 14.8304 15.5801Z" fill="#444444"></path>
  </symbol>
  <symbol fill="none" xmlns="http://www.w3.org/2000/svg" viewBox="0 0 16 16" id="guaranteed">
    <path d="M7.1937 10.1134C7.06036 10.1134 6.9337 10.06 6.84036 9.96669L5.22703 8.35335C5.0337 8.16002 5.0337 7.84002 5.22703 7.64669C5.42036 7.45335 5.74036 7.45335 5.9337 7.64669L7.1937 8.90669L10.0604 6.04002C10.2537 5.84669 10.5737 5.84669 10.767 6.04002C10.9604 6.23335 10.9604 6.55335 10.767 6.74669L7.54703 9.96669C7.4537 10.06 7.32703 10.1134 7.1937 10.1134Z" fill="currentColor"></path>
    <path d="M8.00025 15.1666C7.58025 15.1666 7.16025 15.0266 6.83358 14.7466L5.78025 13.8399C5.67358 13.7466 5.40691 13.6533 5.26691 13.6533H4.12025C3.13358 13.6533 2.33358 12.8533 2.33358 11.8666V10.7266C2.33358 10.5866 2.24025 10.3266 2.14691 10.2199L1.24691 9.15992C0.700247 8.51325 0.700247 7.49325 1.24691 6.84659L2.14691 5.78659C2.24025 5.67992 2.33358 5.41992 2.33358 5.27992V4.13325C2.33358 3.14659 3.13358 2.34659 4.12025 2.34659H5.27358C5.41358 2.34659 5.68025 2.24659 5.78691 2.15992L6.84025 1.25325C7.49358 0.693252 8.51358 0.693252 9.16691 1.25325L10.2202 2.15992C10.3269 2.25325 10.5936 2.34659 10.7336 2.34659H11.8669C12.8536 2.34659 13.6536 3.14659 13.6536 4.13325V5.26659C13.6536 5.40659 13.7536 5.67325 13.8469 5.77992L14.7536 6.83325C15.3136 7.48659 15.3136 8.50659 14.7536 9.15992L13.8469 10.2133C13.7536 10.3199 13.6536 10.5866 13.6536 10.7266V11.8599C13.6536 12.8466 12.8536 13.6466 11.8669 13.6466H10.7336C10.5936 13.6466 10.3269 13.7466 10.2202 13.8333L9.16691 14.7399C8.84025 15.0266 8.42025 15.1666 8.00025 15.1666ZM4.12025 3.34659C3.68691 3.34659 3.33358 3.69992 3.33358 4.13325V5.27325C3.33358 5.65325 3.15358 6.13992 2.90691 6.42659L2.00691 7.48659C1.77358 7.75992 1.77358 8.23325 2.00691 8.50659L2.90691 9.56659C3.15358 9.85992 3.33358 10.3399 3.33358 10.7199V11.8599C3.33358 12.2933 3.68691 12.6466 4.12025 12.6466H5.27358C5.66025 12.6466 6.14691 12.8266 6.44025 13.0799L7.49358 13.9866C7.76691 14.2199 8.24691 14.2199 8.52025 13.9866L9.57358 13.0799C9.86691 12.8333 10.3536 12.6466 10.7402 12.6466H11.8736C12.3069 12.6466 12.6602 12.2933 12.6602 11.8599V10.7266C12.6602 10.3399 12.8402 9.85325 13.0936 9.55992L14.0002 8.50659C14.2336 8.23325 14.2336 7.75325 14.0002 7.47992L13.0936 6.42659C12.8402 6.13325 12.6602 5.64659 12.6602 5.25992V4.13325C12.6602 3.69992 12.3069 3.34659 11.8736 3.34659H10.7402C10.3536 3.34659 9.86691 3.16659 9.57358 2.91325L8.52025 2.00659C8.24691 1.77325 7.76691 1.77325 7.49358 2.00659L6.44025 2.91992C6.14691 3.16659 5.65358 3.34659 5.27358 3.34659H4.12025Z" fill="currentColor"></path>
  </symbol>
  <symbol fill="none" xmlns="http://www.w3.org/2000/svg" viewBox="0 0 25 24" id="copyright">
    <path d="M12.5 22C6.98 22 2.5 17.52 2.5 12C2.5 6.48 6.98 2 12.5 2C18.02 2 22.5 6.48 22.5 12C22.5 17.52 18.02 22 12.5 22Z" stroke="#CBCBCB" stroke-width="1.5" stroke-linecap="round" stroke-linejoin="round"></path>
    <path d="M15.3802 15C14.6702 15.62 13.7502 16 12.7402 16C10.5302 16 8.74023 14.21 8.74023 12C8.74023 9.79 10.5302 8 12.7402 8C13.7502 8 14.6702 8.38 15.3802 9" stroke="#CBCBCB" stroke-width="1.5" stroke-linecap="round" stroke-linejoin="round"></path>
  </symbol>
  <symbol fill="none" xmlns="http://www.w3.org/2000/svg" viewBox="0 0 24 48" id="like-button">
    <path d="M16.2804 34.1H12.4804C11.9204 34.1 10.7004 33.93 10.0504 33.28L7.02035 30.94L7.94035 29.75L11.0404 32.15C11.2904 32.39 11.9204 32.59 12.4804 32.59H16.2804C17.1804 32.59 18.1504 31.87 18.3504 31.06L20.7704 23.71C20.9304 23.27 20.9004 22.87 20.6904 22.58C20.4704 22.27 20.0704 22.09 19.5804 22.09H15.5804C15.0604 22.09 14.5804 21.87 14.2504 21.49C13.9104 21.1 13.7604 20.58 13.8404 20.04L14.3404 16.83C14.4604 16.27 14.0804 15.64 13.5404 15.46C13.0504 15.28 12.4204 15.54 12.2004 15.86L8.10035 21.96L6.86035 21.13L10.9604 15.03C11.5904 14.09 12.9704 13.64 14.0504 14.05C15.3004 14.46 16.1004 15.84 15.8204 17.12L15.3304 20.27C15.3204 20.34 15.3204 20.44 15.3904 20.52C15.4404 20.57 15.5104 20.6 15.5904 20.6H19.5904C20.5704 20.6 21.4204 21.01 21.9204 21.72C22.4104 22.41 22.5104 23.32 22.1904 24.2L19.8004 31.48C19.4304 32.93 17.8904 34.1 16.2804 34.1Z" fill="#0C68F4"></path>
    <path d="M5.37988 33H4.37988C2.52988 33 1.62988 32.13 1.62988 30.35V20.55C1.62988 18.77 2.52988 17.9 4.37988 17.9H5.37988C7.22988 17.9 8.12988 18.77 8.12988 20.55V30.35C8.12988 32.13 7.22988 33 5.37988 33ZM4.37988 19.4C3.28988 19.4 3.12988 19.66 3.12988 20.55V30.35C3.12988 31.24 3.28988 31.5 4.37988 31.5H5.37988C6.46988 31.5 6.62988 31.24 6.62988 30.35V20.55C6.62988 19.66 6.46988 19.4 5.37988 19.4H4.37988Z" fill="#0C68F4"></path>
  </symbol>
  <symbol fill="none" xmlns="http://www.w3.org/2000/svg" viewBox="0 0 24 24" id="profile-circle">
    <g id="vuesax/outline/profile-circle">
      <g id="profile-circle">
        <path id="Vector" d="M12.1205 13.53C12.1005 13.53 12.0705 13.53 12.0505 13.53C12.0205 13.53 11.9805 13.53 11.9505 13.53C9.68047 13.46 7.98047 11.69 7.98047 9.50998C7.98047 7.28998 9.79047 5.47998 12.0105 5.47998C14.2305 5.47998 16.0405 7.28998 16.0405 9.50998C16.0305 11.7 14.3205 13.46 12.1505 13.53C12.1305 13.53 12.1305 13.53 12.1205 13.53ZM12.0005 6.96998C10.6005 6.96998 9.47047 8.10998 9.47047 9.49998C9.47047 10.87 10.5405 11.98 11.9005 12.03C11.9305 12.02 12.0305 12.02 12.1305 12.03C13.4705 11.96 14.5205 10.86 14.5305 9.49998C14.5305 8.10998 13.4005 6.96998 12.0005 6.96998Z" fill="#0C0C0C"></path>
        <path id="Vector_2" d="M11.9998 22.7501C9.30984 22.7501 6.73984 21.7501 4.74984 19.9301C4.56984 19.7701 4.48984 19.5301 4.50984 19.3001C4.63984 18.1101 5.37984 17.0001 6.60984 16.1801C9.58984 14.2001 14.4198 14.2001 17.3898 16.1801C18.6198 17.0101 19.3598 18.1101 19.4898 19.3001C19.5198 19.5401 19.4298 19.7701 19.2498 19.9301C17.2598 21.7501 14.6898 22.7501 11.9998 22.7501ZM6.07984 19.1001C7.73984 20.4901 9.82984 21.2501 11.9998 21.2501C14.1698 21.2501 16.2598 20.4901 17.9198 19.1001C17.7398 18.4901 17.2598 17.9001 16.5498 17.4201C14.0898 15.7801 9.91984 15.7801 7.43984 17.4201C6.72984 17.9001 6.25984 18.4901 6.07984 19.1001Z" fill="#0C0C0C"></path>
        <path id="Vector_3" d="M12 22.75C6.07 22.75 1.25 17.93 1.25 12C1.25 6.07 6.07 1.25 12 1.25C17.93 1.25 22.75 6.07 22.75 12C22.75 17.93 17.93 22.75 12 22.75ZM12 2.75C6.9 2.75 2.75 6.9 2.75 12C2.75 17.1 6.9 21.25 12 21.25C17.1 21.25 21.25 17.1 21.25 12C21.25 6.9 17.1 2.75 12 2.75Z" fill="#0C0C0C"></path>
      </g>
    </g>
  </symbol>
  <symbol fill="none" xmlns="http://www.w3.org/2000/svg" viewBox="0 0 16 16" id="delivery">
    <path d="M8.66634 9.83325H1.33301C1.05967 9.83325 0.833008 9.60659 0.833008 9.33325V3.99992C0.833008 2.25325 2.25301 0.833252 3.99967 0.833252H9.99967C10.273 0.833252 10.4997 1.05992 10.4997 1.33325V7.99992C10.4997 9.01325 9.67968 9.83325 8.66634 9.83325ZM1.83301 8.83325H8.66634C9.12634 8.83325 9.49967 8.45992 9.49967 7.99992V1.83325H3.99967C2.80634 1.83325 1.83301 2.80659 1.83301 3.99992V8.83325Z" fill="currentColor"></path>
    <path d="M12.6663 13.8333H11.9997C11.7263 13.8333 11.4997 13.6066 11.4997 13.3333C11.4997 12.8733 11.1263 12.4999 10.6663 12.4999C10.2063 12.4999 9.83301 12.8733 9.83301 13.3333C9.83301 13.6066 9.60634 13.8333 9.33301 13.8333H6.66634C6.39301 13.8333 6.16634 13.6066 6.16634 13.3333C6.16634 12.8733 5.79301 12.4999 5.33301 12.4999C4.87301 12.4999 4.49967 12.8733 4.49967 13.3333C4.49967 13.6066 4.27301 13.8333 3.99967 13.8333H3.33301C1.95301 13.8333 0.833008 12.7133 0.833008 11.3333V9.33325C0.833008 9.05992 1.05967 8.83325 1.33301 8.83325H8.66634C9.12634 8.83325 9.49967 8.45992 9.49967 7.99992V3.33325C9.49967 3.05992 9.72634 2.83325 9.99967 2.83325H11.2263C11.8863 2.83325 12.493 3.1866 12.8197 3.75993L13.9597 5.75326C14.0463 5.90659 14.0463 6.09992 13.9597 6.25326C13.873 6.40659 13.7063 6.49992 13.5263 6.49992H12.6663C12.573 6.49992 12.4997 6.57325 12.4997 6.66659V8.66659C12.4997 8.75992 12.573 8.83325 12.6663 8.83325H14.6663C14.9397 8.83325 15.1663 9.05992 15.1663 9.33325V11.3333C15.1663 12.7133 14.0463 13.8333 12.6663 13.8333ZM12.433 12.8333H12.6663C13.493 12.8333 14.1663 12.1599 14.1663 11.3333V9.83325H12.6663C12.0263 9.83325 11.4997 9.30659 11.4997 8.66659V6.66659C11.4997 6.02659 12.0197 5.49992 12.6663 5.49992L11.953 4.25326C11.8063 3.99326 11.5263 3.83325 11.2263 3.83325H10.4997V7.99992C10.4997 9.01325 9.67968 9.83325 8.66634 9.83325H1.83301V11.3333C1.83301 12.1599 2.50634 12.8333 3.33301 12.8333H3.56635C3.78635 12.0666 4.49301 11.4999 5.33301 11.4999C6.17301 11.4999 6.87967 12.0666 7.09967 12.8333H8.90633C9.12633 12.0666 9.83301 11.4999 10.673 11.4999C11.513 11.4999 12.213 12.0666 12.433 12.8333Z" fill="currentColor"></path>
    <path d="M5.33333 15.1667C4.32 15.1667 3.5 14.3467 3.5 13.3333C3.5 12.32 4.32 11.5 5.33333 11.5C6.34667 11.5 7.16667 12.32 7.16667 13.3333C7.16667 14.3467 6.34667 15.1667 5.33333 15.1667ZM5.33333 12.5C4.87333 12.5 4.5 12.8733 4.5 13.3333C4.5 13.7933 4.87333 14.1667 5.33333 14.1667C5.79333 14.1667 6.16667 13.7933 6.16667 13.3333C6.16667 12.8733 5.79333 12.5 5.33333 12.5Z" fill="currentColor"></path>
    <path d="M10.6663 15.1667C9.65301 15.1667 8.83301 14.3467 8.83301 13.3333C8.83301 12.32 9.65301 11.5 10.6663 11.5C11.6797 11.5 12.4997 12.32 12.4997 13.3333C12.4997 14.3467 11.6797 15.1667 10.6663 15.1667ZM10.6663 12.5C10.2063 12.5 9.83301 12.8733 9.83301 13.3333C9.83301 13.7933 10.2063 14.1667 10.6663 14.1667C11.1263 14.1667 11.4997 13.7933 11.4997 13.3333C11.4997 12.8733 11.1263 12.5 10.6663 12.5Z" fill="currentColor"></path>
    <path d="M14.6667 9.83333H12.6667C12.0267 9.83333 11.5 9.30667 11.5 8.66667V6.66667C11.5 6.02667 12.0267 5.5 12.6667 5.5H13.5267C13.7067 5.5 13.8733 5.59334 13.96 5.75334L15.1 7.75334C15.14 7.82667 15.1667 7.91333 15.1667 8V9.33333C15.1667 9.60667 14.94 9.83333 14.6667 9.83333ZM12.6667 6.5C12.5733 6.5 12.5 6.57333 12.5 6.66667V8.66667C12.5 8.76 12.5733 8.83333 12.6667 8.83333H14.1667V8.13334L13.2333 6.5H12.6667Z" fill="currentColor"></path>
  </symbol>
  <symbol fill="none" xmlns="http://www.w3.org/2000/svg" viewBox="0 0 20 21" id="call">
    <path d="M14.541 19.4583C13.5993 19.4583 12.6077 19.2333 11.5827 18.7999C10.5827 18.3749 9.57435 17.7916 8.59102 17.0833C7.61602 16.3666 6.67435 15.5666 5.78268 14.6916C4.89935 13.7999 4.09935 12.8583 3.39102 11.8916C2.67435 10.8916 2.09935 9.89159 1.69102 8.92493C1.25768 7.89159 1.04102 6.8916 1.04102 5.94993C1.04102 5.29993 1.15768 4.68326 1.38268 4.10826C1.61602 3.5166 1.99102 2.9666 2.49935 2.4916C3.14102 1.85826 3.87435 1.5416 4.65768 1.5416C4.98268 1.5416 5.31602 1.6166 5.59935 1.74993C5.92435 1.89993 6.19935 2.12493 6.39935 2.42493L8.33268 5.14993C8.50768 5.3916 8.64101 5.62493 8.73268 5.85826C8.84101 6.10826 8.89935 6.35826 8.89935 6.59993C8.89935 6.9166 8.80768 7.22493 8.63268 7.5166C8.50768 7.7416 8.31601 7.98326 8.07435 8.22493L7.50768 8.8166C7.51602 8.84159 7.52435 8.85826 7.53268 8.87493C7.63268 9.04993 7.83268 9.34993 8.21601 9.79993C8.62435 10.2666 9.00768 10.6916 9.39102 11.0833C9.88268 11.5666 10.291 11.9499 10.6743 12.2666C11.1493 12.6666 11.4577 12.8666 11.641 12.9583L11.6243 12.9999L12.2327 12.3999C12.491 12.1416 12.741 11.9499 12.9827 11.8249C13.441 11.5416 14.0243 11.4916 14.6077 11.7333C14.8243 11.8249 15.0577 11.9499 15.3077 12.1249L18.0743 14.0916C18.3827 14.2999 18.6077 14.5666 18.741 14.8833C18.866 15.1999 18.9243 15.4916 18.9243 15.7833C18.9243 16.1833 18.8327 16.5833 18.6577 16.9583C18.4827 17.3333 18.266 17.6583 17.991 17.9583C17.516 18.4833 16.9993 18.8583 16.3993 19.0999C15.8243 19.3333 15.1993 19.4583 14.541 19.4583ZM4.65768 2.7916C4.19935 2.7916 3.77435 2.9916 3.36602 3.3916C2.98268 3.74993 2.71602 4.1416 2.54935 4.5666C2.37435 4.99993 2.29102 5.45826 2.29102 5.94993C2.29102 6.72493 2.47435 7.5666 2.84102 8.43326C3.21602 9.3166 3.74102 10.2333 4.40768 11.1499C5.07435 12.0666 5.83268 12.9583 6.66602 13.7999C7.49935 14.6249 8.39935 15.3916 9.32435 16.0666C10.2243 16.7249 11.1493 17.2583 12.066 17.6416C13.491 18.2499 14.8243 18.3916 15.9243 17.9333C16.3493 17.7583 16.7243 17.4916 17.066 17.1083C17.2577 16.8999 17.4077 16.6749 17.5327 16.4083C17.6327 16.1999 17.6827 15.9833 17.6827 15.7666C17.6827 15.6333 17.6577 15.4999 17.591 15.3499C17.566 15.2999 17.516 15.2083 17.3577 15.0999L14.591 13.1333C14.4243 13.0166 14.2743 12.9333 14.1327 12.8749C13.9493 12.7999 13.8743 12.7249 13.591 12.8999C13.4243 12.9833 13.2743 13.1083 13.1077 13.2749L12.4743 13.8999C12.1493 14.2166 11.6493 14.2916 11.266 14.1499L11.041 14.0499C10.6993 13.8666 10.2993 13.5833 9.85768 13.2083C9.45768 12.8666 9.02435 12.4666 8.49935 11.9499C8.09101 11.5333 7.68268 11.0916 7.25768 10.5999C6.86601 10.1416 6.58268 9.74993 6.40768 9.42493L6.30768 9.17493C6.25768 8.98326 6.24101 8.87493 6.24101 8.75826C6.24101 8.45826 6.34935 8.1916 6.55768 7.98326L7.18268 7.33326C7.34935 7.16659 7.47435 7.00826 7.55768 6.8666C7.62435 6.75826 7.64935 6.6666 7.64935 6.58326C7.64935 6.5166 7.62435 6.4166 7.58268 6.3166C7.52435 6.18326 7.43268 6.03326 7.31601 5.87493L5.38268 3.1416C5.29935 3.02493 5.19935 2.9416 5.07435 2.88326C4.94102 2.82493 4.79935 2.7916 4.65768 2.7916ZM11.6243 13.0083L11.491 13.5749L11.716 12.9916C11.6743 12.9833 11.641 12.9916 11.6243 13.0083Z" fill="currentColor"></path>
    <path d="M15.4167 8.62501C15.075 8.62501 14.7917 8.34168 14.7917 8.00001C14.7917 7.70001 14.4917 7.07501 13.9917 6.54168C13.5 6.01668 12.9583 5.70834 12.5 5.70834C12.1583 5.70834 11.875 5.42501 11.875 5.08334C11.875 4.74168 12.1583 4.45834 12.5 4.45834C13.3083 4.45834 14.1583 4.89168 14.9 5.68334C15.5917 6.42501 16.0417 7.33334 16.0417 8.00001C16.0417 8.34168 15.7583 8.62501 15.4167 8.62501Z" fill="currentColor"></path>
    <path d="M18.3333 8.62493C17.9917 8.62493 17.7083 8.3416 17.7083 7.99993C17.7083 5.12493 15.375 2.7916 12.5 2.7916C12.1583 2.7916 11.875 2.50826 11.875 2.1666C11.875 1.82493 12.1583 1.5416 12.5 1.5416C16.0583 1.5416 18.9583 4.4416 18.9583 7.99993C18.9583 8.3416 18.675 8.62493 18.3333 8.62493Z" fill="currentColor"></path>
  </symbol>
  <symbol fill="none" xmlns="http://www.w3.org/2000/svg" viewBox="0 0 24 24" id="google">
    <path d="M21.7402 11.07C21.6902 10.56 21.2602 10.18 20.7502 10.18H13.2002C12.6502 10.18 12.2002 10.63 12.2002 11.18V12.89C12.2002 13.44 12.6502 13.89 13.2002 13.89H17.7102C17.6002 14.81 17.0002 16.2 15.6702 17.13C14.8202 17.72 13.6902 18.13 12.2002 18.13C12.1302 18.13 12.0702 18.13 12.0002 18.12C9.4502 18.04 7.2902 16.33 6.5102 13.98C6.3002 13.35 6.1802 12.69 6.1802 12C6.1802 11.31 6.3002 10.64 6.5002 10.02C6.5602 9.83999 6.6302 9.66001 6.7102 9.48001C7.6302 7.41001 9.6402 5.95 12.0002 5.88C12.0602 5.87 12.1302 5.87 12.2002 5.87C13.6302 5.87 14.7002 6.33999 15.4502 6.85999C15.8402 7.12999 16.3602 7.06999 16.7002 6.73999L18.0902 5.38C18.5302 4.95 18.4902 4.21999 17.9902 3.85999C16.4002 2.68999 14.4602 2 12.2002 2C12.1302 2 12.0702 2.00001 12.0002 2.01001C8.1702 2.08001 4.8802 4.30001 3.2702 7.51001C2.5902 8.87001 2.2002 10.39 2.2002 12C2.2002 13.61 2.5902 15.13 3.2702 16.49H3.2802C4.8902 19.7 8.1802 21.92 12.0002 21.99C12.0702 22 12.1302 22 12.2002 22C14.9002 22 17.1702 21.11 18.8202 19.58C20.7102 17.83 21.8002 15.27 21.8002 12.22C21.8002 11.79 21.7802 11.42 21.7402 11.07Z" fill="#0C68F4"></path>
  </symbol>
  <symbol fill="none" xmlns="http://www.w3.org/2000/svg" viewBox="0 0 24 24" id="sms">
    <path d="M17 21.25H7C3.35 21.25 1.25 19.15 1.25 15.5V8.5C1.25 4.85 3.35 2.75 7 2.75H17C20.65 2.75 22.75 4.85 22.75 8.5V15.5C22.75 19.15 20.65 21.25 17 21.25ZM7 4.25C4.14 4.25 2.75 5.64 2.75 8.5V15.5C2.75 18.36 4.14 19.75 7 19.75H17C19.86 19.75 21.25 18.36 21.25 15.5V8.5C21.25 5.64 19.86 4.25 17 4.25H7Z" fill="#B4B4B4"></path>
    <path d="M11.9998 12.87C11.1598 12.87 10.3098 12.61 9.65978 12.08L6.52978 9.57997C6.20978 9.31997 6.14978 8.84997 6.40978 8.52997C6.66978 8.20997 7.13978 8.14997 7.45978 8.40997L10.5898 10.91C11.3498 11.52 12.6398 11.52 13.3998 10.91L16.5298 8.40997C16.8498 8.14997 17.3298 8.19997 17.5798 8.52997C17.8398 8.84997 17.7898 9.32997 17.4598 9.57997L14.3298 12.08C13.6898 12.61 12.8398 12.87 11.9998 12.87Z" fill="#B4B4B4"></path>
  </symbol>
  <symbol fill="none" xmlns="http://www.w3.org/2000/svg" viewBox="0 0 24 24" id="logout">
    <path d="M15.2395 22.27H15.1095C10.6695 22.27 8.52953 20.52 8.15953 16.6C8.11953 16.19 8.41953 15.82 8.83953 15.78C9.23953 15.74 9.61953 16.05 9.65953 16.46C9.94953 19.6 11.4295 20.77 15.1195 20.77H15.2495C19.3195 20.77 20.7595 19.33 20.7595 15.26V8.73998C20.7595 4.66998 19.3195 3.22998 15.2495 3.22998H15.1195C11.4095 3.22998 9.92953 4.41998 9.65953 7.61998C9.60953 8.02998 9.25953 8.33998 8.83953 8.29998C8.41953 8.26998 8.11953 7.89998 8.14953 7.48998C8.48953 3.50998 10.6395 1.72998 15.1095 1.72998H15.2395C20.1495 1.72998 22.2495 3.82998 22.2495 8.73998V15.26C22.2495 20.17 20.1495 22.27 15.2395 22.27Z" fill="#0C0C0C"></path>
    <path d="M15.0001 12.75H3.62012C3.21012 12.75 2.87012 12.41 2.87012 12C2.87012 11.59 3.21012 11.25 3.62012 11.25H15.0001C15.4101 11.25 15.7501 11.59 15.7501 12C15.7501 12.41 15.4101 12.75 15.0001 12.75Z" fill="#0C0C0C"></path>
    <path d="M5.85043 16.1001C5.66043 16.1001 5.47043 16.0301 5.32043 15.8801L1.97043 12.5301C1.68043 12.2401 1.68043 11.7601 1.97043 11.4701L5.32043 8.12009C5.61043 7.83009 6.09043 7.83009 6.38043 8.12009C6.67043 8.41009 6.67043 8.89009 6.38043 9.18009L3.56043 12.0001L6.38043 14.8201C6.67043 15.1101 6.67043 15.5901 6.38043 15.8801C6.24043 16.0301 6.04043 16.1001 5.85043 16.1001Z" fill="#0C0C0C"></path>
  </symbol>
 <symbol fill="none" xmlns="http://www.w3.org/2000/svg" viewBox="0 0 24 24" id="login">
    <g id="vuesax/outline/login">
      <g id="login">
        <path id="Vector" d="M15.2395 22.27H15.1095C10.6695 22.27 8.52953 20.52 8.15953 16.6C8.11953 16.19 8.41953 15.82 8.83953 15.78C9.24953 15.74 9.61953 16.05 9.65953 16.46C9.94953 19.6 11.4295 20.77 15.1195 20.77H15.2495C19.3195 20.77 20.7595 19.33 20.7595 15.26V8.73998C20.7595 4.66998 19.3195 3.22998 15.2495 3.22998H15.1195C11.4095 3.22998 9.92953 4.41998 9.65953 7.61998C9.60953 8.02998 9.26953 8.33998 8.83953 8.29998C8.41953 8.26998 8.11953 7.89998 8.14953 7.48998C8.48953 3.50998 10.6395 1.72998 15.1095 1.72998H15.2395C20.1495 1.72998 22.2495 3.82998 22.2495 8.73998V15.26C22.2495 20.17 20.1495 22.27 15.2395 22.27Z" fill="currentColor"></path>
        <path id="Vector_2" d="M14.88 12.75H2C1.59 12.75 1.25 12.41 1.25 12C1.25 11.59 1.59 11.25 2 11.25H14.88C15.29 11.25 15.63 11.59 15.63 12C15.63 12.41 15.3 12.75 14.88 12.75Z" fill="currentColor"></path>
        <path id="Vector_3" d="M12.6498 16.0998C12.4598 16.0998 12.2698 16.0298 12.1198 15.8798C11.8298 15.5898 11.8298 15.1098 12.1198 14.8198L14.9398 11.9998L12.1198 9.17984C11.8298 8.88984 11.8298 8.40984 12.1198 8.11984C12.4098 7.82984 12.8898 7.82984 13.1798 8.11984L16.5298 11.4698C16.8198 11.7598 16.8198 12.2398 16.5298 12.5298L13.1798 15.8798C13.0298 16.0298 12.8398 16.0998 12.6498 16.0998Z" fill="currentColor"></path>
      </g>
    </g>
  </symbol>
</svg>
